# Blender 5.0.1
# www.blender.org
mtllib Rock_7.mtl
o Rock_7
v -0.007899 0.347806 -0.832488
v -0.007899 0.347806 -0.832488
v -0.007899 0.347806 -0.832488
v 0.091742 0.391174 0.630338
v 0.091742 0.391174 0.630338
v 0.091742 0.391174 0.630338
v -0.110583 0.297452 1.140136
v -0.110583 0.297452 1.140136
v -0.110583 0.297452 1.140136
v -1.583419 0.865357 0.201541
v -1.583419 0.865357 0.201541
v -1.583419 0.865357 0.201541
v -1.230109 1.535364 0.215133
v -1.230109 1.535364 0.215133
v -1.230109 1.535364 0.215133
v -0.591134 1.144383 -0.967689
v -0.591134 1.144383 -0.967689
v -0.591134 1.144383 -0.967689
v -0.943175 0.473600 -0.989689
v -0.943175 0.473600 -0.989689
v -0.943175 0.473600 -0.989689
v -0.686136 1.190907 1.012952
v -0.686136 1.190907 1.012952
v -0.686136 1.190907 1.012952
v -1.093092 0.553726 0.978500
v -1.093092 0.553726 0.978500
v -1.093092 0.553726 0.978500
v 0.227085 0.850919 0.642208
v 0.227085 0.850919 0.642208
v 0.227085 0.850919 0.642208
v 0.092522 0.873824 -0.823489
v 0.092522 0.873824 -0.823489
v 0.092522 0.873824 -0.823489
v -0.485665 0.049182 -0.804656
v -0.485665 0.049182 -0.804656
v -0.485665 0.049182 -0.804656
v 0.005254 0.872082 1.159048
v 0.005254 0.872082 1.159048
v 0.005254 0.872082 1.159048
v -0.563844 0.056389 0.669111
v -0.563844 0.056389 0.669111
v -0.563844 0.056389 0.669111
v -1.563701 1.296391 0.247798
v -1.563701 1.296391 0.247798
v -1.563701 1.296391 0.247798
v -1.563701 1.296391 0.247798
v -1.333437 0.615295 -0.382859
v -1.333437 0.615295 -0.382859
v -1.333437 0.615295 -0.382859
v -1.333437 0.615295 -0.382859
v -0.951623 1.460231 0.651463
v -0.951623 1.460231 0.651463
v -0.951623 1.460231 0.651463
v -0.951623 1.460231 0.651463
v -0.907010 1.434759 -0.351143
v -0.907010 1.434759 -0.351143
v -0.907010 1.434759 -0.351143
v -0.907010 1.434759 -0.351143
v -0.758684 0.803813 -1.169158
v -0.758684 0.803813 -1.169158
v -0.758684 0.803813 -1.169158
v -0.758684 0.803813 -1.169158
v -1.428147 0.671422 0.611996
v -1.428147 0.671422 0.611996
v -1.428147 0.671422 0.611996
v -1.428147 0.671422 0.611996
v -0.907011 0.876410 1.136470
v -0.907011 0.876410 1.136470
v -0.907011 0.876410 1.136470
v -0.907011 0.876410 1.136470
v 0.213498 0.611801 0.757698
v 0.213498 0.611801 0.757698
v 0.213498 0.611801 0.757698
v 0.213498 0.611801 0.757698
v 0.172216 0.933579 -0.060259
v 0.172216 0.933579 -0.060259
v 0.172216 0.933579 -0.060259
v 0.172216 0.933579 -0.060259
v -0.182409 1.020119 -0.977143
v -0.182409 1.020119 -0.977143
v -0.182409 1.020119 -0.977143
v -0.182409 1.020119 -0.977143
v 0.080327 0.589887 -1.025320
v 0.080327 0.589887 -1.025320
v 0.080327 0.589887 -1.025320
v 0.080327 0.589887 -1.025320
v -0.225276 0.183698 -0.958463
v -0.225276 0.183698 -0.958463
v -0.225276 0.183698 -0.958463
v -0.225276 0.183698 -0.958463
v -0.691095 0.194049 -1.019807
v -0.691095 0.194049 -1.019807
v -0.691095 0.194049 -1.019807
v -0.691095 0.194049 -1.019807
v -0.567408 -0.006700 -0.029094
v -0.567408 -0.006700 -0.029094
v -0.567408 -0.006700 -0.029094
v -0.567408 -0.006700 -0.029094
v -0.315482 0.157714 0.937240
v -0.315482 0.157714 0.937240
v -0.315482 0.157714 0.937240
v -0.315482 0.157714 0.937240
v -0.038708 0.561122 1.283946
v -0.038708 0.561122 1.283946
v -0.038708 0.561122 1.283946
v -0.038708 0.561122 1.283946
v -0.264005 1.042881 1.028081
v -0.264005 1.042881 1.028081
v -0.264005 1.042881 1.028081
v -0.264005 1.042881 1.028081
v -0.810989 0.242529 0.873439
v -0.810989 0.242529 0.873439
v -0.810989 0.242529 0.873439
v -0.810989 0.242529 0.873439
v -0.012467 0.295965 0.923062
v -0.012467 0.295965 0.923062
v -0.012467 0.295965 0.923062
v -0.012467 0.295965 0.923062
v 0.127207 0.932152 0.943527
v 0.127207 0.932152 0.943527
v 0.127207 0.932152 0.943527
v 0.127207 0.932152 0.943527
v 0.046526 0.336130 -0.075041
v 0.046526 0.336130 -0.075041
v 0.046526 0.336130 -0.075041
v 0.046526 0.336130 -0.075041
v -0.203154 0.094698 0.153208
v -0.203154 0.094698 0.153208
v -0.203154 0.094698 0.153208
v -0.203154 0.094698 0.153208
v -0.203154 0.094698 0.153208
v 0.137067 0.590353 1.182427
v 0.137067 0.590353 1.182427
v 0.137067 0.590353 1.182427
v 0.137067 0.590353 1.182427
v -1.366860 1.173580 0.807394
v -1.366860 1.173580 0.807394
v -1.366860 1.173580 0.807394
v -1.366860 1.173580 0.807394
v -0.286113 0.515159 -1.394148
v -0.286113 0.515159 -1.394148
v -0.286113 0.515159 -1.394148
v -0.286113 0.515159 -1.394148
v -0.286113 0.515159 -1.394148
v -0.424202 0.537163 1.237343
v -0.424202 0.537163 1.237343
v -0.424202 0.537163 1.237343
v -0.424202 0.537163 1.237343
v -0.424202 0.537163 1.237343
v -1.272133 1.117982 -0.504432
v -1.272133 1.117982 -0.504432
v -1.272133 1.117982 -0.504432
v -1.272133 1.117982 -0.504432
v 0.208231 0.619309 -0.132457
v 0.208231 0.619309 -0.132457
v 0.208231 0.619309 -0.132457
v 0.208231 0.619309 -0.132457
v -0.262468 1.287406 0.204468
v -0.262468 1.287406 0.204468
v -0.262468 1.287406 0.204468
v -0.262468 1.287406 0.204468
v -0.262468 1.287406 0.204468
v -0.262468 1.287406 0.204468
v -1.051506 0.208015 0.001651
v -1.051506 0.208015 0.001651
v -1.051506 0.208015 0.001651
v -1.051506 0.208015 0.001651
v -1.051506 0.208015 0.001651
v 0.166735 0.351370 -0.849495
v 0.166735 0.351370 -0.849495
v 0.166735 0.351370 -0.849495
v 0.166915 0.351512 0.544361
v 0.166915 0.351512 0.544361
v 0.166915 0.351512 0.544361
v 0.668555 0.044468 -0.909379
v 0.668555 0.044468 -0.909379
v 0.668555 0.044468 -0.909379
v 0.668630 0.044426 0.424623
v 0.668630 0.044426 0.424623
v 0.668630 0.044426 0.424623
v 0.865272 0.365948 -0.909440
v 0.865272 0.365948 -0.909440
v 0.865272 0.365948 -0.909440
v 0.363511 0.672833 -0.849550
v 0.363511 0.672833 -0.849550
v 0.363511 0.672833 -0.849550
v 0.363601 0.672966 0.544281
v 0.363601 0.672966 0.544281
v 0.363601 0.672966 0.544281
v 0.865258 0.365897 0.424535
v 0.865258 0.365897 0.424535
v 0.865258 0.365897 0.424535
v 0.635949 0.554609 -1.028940
v 0.635949 0.554609 -1.028940
v 0.635949 0.554609 -1.028940
v 0.635949 0.554609 -1.028940
v 0.821895 0.171596 -1.059270
v 0.821895 0.171596 -1.059270
v 0.821895 0.171596 -1.059270
v 0.821895 0.171596 -1.059270
v 0.396069 0.162690 -1.028875
v 0.396069 0.162690 -1.028875
v 0.396069 0.162690 -1.028875
v 0.396069 0.162690 -1.028875
v 0.210123 0.545704 -0.998545
v 0.210123 0.545704 -0.998545
v 0.210123 0.545704 -0.998545
v 0.210123 0.545704 -0.998545
v 0.702024 -0.024414 -0.252210
v 0.702024 -0.024414 -0.252210
v 0.702024 -0.024414 -0.252210
v 0.702024 -0.024414 -0.252210
v 0.396244 0.162753 0.633945
v 0.396244 0.162753 0.633945
v 0.396244 0.162753 0.633945
v 0.396244 0.162753 0.633945
v 0.090289 0.349858 -0.142720
v 0.090289 0.349858 -0.142720
v 0.090289 0.349858 -0.142720
v 0.090289 0.349858 -0.142720
v 0.210309 0.545909 0.713024
v 0.210309 0.545909 0.713024
v 0.210309 0.545909 0.713024
v 0.210309 0.545909 0.713024
v 0.330144 0.741755 -0.142801
v 0.330144 0.741755 -0.142801
v 0.330144 0.741755 -0.142801
v 0.330144 0.741755 -0.142801
v 0.821911 0.171502 0.554758
v 0.821911 0.171502 0.554758
v 0.821911 0.171502 0.554758
v 0.821911 0.171502 0.554758
v 0.635977 0.554658 0.633837
v 0.635977 0.554658 0.633837
v 0.635977 0.554658 0.633837
v 0.635977 0.554658 0.633837
v 0.941782 0.367512 -0.252302
v 0.941782 0.367512 -0.252302
v 0.941782 0.367512 -0.252302
v 0.941782 0.367512 -0.252302
v 0.937272 0.100961 -0.272908
v 0.937272 0.100961 -0.272908
v 0.937272 0.100961 -0.272908
v 0.937272 0.100961 -0.272908
v 0.516129 0.358716 0.947508
v 0.516129 0.358716 0.947508
v 0.516129 0.358716 0.947508
v 0.516129 0.358716 0.947508
v 0.350927 0.088804 -0.197449
v 0.350927 0.088804 -0.197449
v 0.350927 0.088804 -0.197449
v 0.350927 0.088804 -0.197449
v 0.681192 0.628551 -0.197568
v 0.681192 0.628551 -0.197568
v 0.681192 0.628551 -0.197568
v 0.681192 0.628551 -0.197568
v 0.515990 0.358639 -1.342525
v 0.515990 0.358639 -1.342525
v 0.515990 0.358639 -1.342525
v 0.515990 0.358639 -1.342525
v 0.094847 0.616394 -0.122109
v 0.094847 0.616394 -0.122109
v 0.094847 0.616394 -0.122109
v 0.094847 0.616394 -0.122109
vn 0.4163 -0.8975 0.1453
vn 0.2455 -0.9642 0.1000
vn 0.2456 -0.9642 0.1000
vn 0.3551 -0.9329 -0.0604
vn 0.6457 -0.7606 -0.0674
vn 0.6988 -0.7152 0.0125
vn 0.6989 -0.7152 0.0125
vn 0.6300 -0.6033 0.4891
vn 0.6299 -0.6033 0.4891
vn 0.8366 -0.5336 0.1240
vn 0.8365 -0.5338 0.1236
vn 0.9659 0.1304 0.2238
vn 0.9659 0.1303 0.2238
vn 0.6306 0.3524 0.6915
vn 0.6307 0.3524 0.6914
vn -0.9406 -0.0063 0.3394
vn -0.6850 -0.1035 0.7211
vn -0.6851 -0.1034 0.7211
vn -0.2435 0.6087 0.7551
vn -0.4650 0.7992 0.3808
vn 0.0543 0.5781 -0.8142
vn 0.0543 0.5780 -0.8142
vn 0.0542 0.5780 -0.8142
vn 0.5963 0.4394 -0.6718
vn 0.6535 -0.5730 -0.4945
vn 0.6535 -0.5731 -0.4945
vn 0.0621 -0.7931 -0.6059
vn 0.0622 -0.7931 -0.6059
vn -0.4946 -0.2581 -0.8299
vn -0.4945 -0.2581 -0.8299
vn -0.1830 -0.5655 0.8042
vn -0.1829 -0.5655 0.8042
vn -0.1530 0.4068 0.9006
vn 0.0675 0.3480 0.9351
vn 0.0676 0.3480 0.9351
vn 0.0677 0.3480 0.9350
vn -0.3389 -0.4039 0.8497
vn -0.3388 -0.4040 0.8497
vn -0.3389 -0.4036 0.8499
vn -0.3388 -0.4039 0.8497
vn -0.2084 -0.7208 0.6611
vn -0.2085 -0.7208 0.6611
vn -0.5258 0.7487 -0.4036
vn -0.4332 0.6740 -0.5984
vn -0.8101 0.0274 -0.5856
vn -0.8102 0.0273 -0.5856
vn -0.9202 0.0485 -0.3884
vn -0.9202 0.0486 -0.3884
vn 0.8814 -0.4633 -0.0924
vn 0.9868 0.0983 -0.1290
vn 0.9868 0.0984 -0.1290
vn 0.9987 0.0377 -0.0356
vn 0.9987 0.0376 -0.0356
vn 0.8722 -0.4889 -0.0130
vn 0.3701 0.8796 0.2989
vn 0.3194 0.8984 0.3013
vn 0.3194 0.8985 0.3013
vn 0.6500 0.7593 0.0302
vn 0.6500 0.7594 0.0302
vn 0.5561 0.8197 -0.1377
vn 0.5560 0.8197 -0.1377
vn 0.5561 0.8196 -0.1377
vn 0.3440 0.9156 -0.2082
vn 0.3441 0.9156 -0.2082
vn 0.2480 0.9687 -0.0135
vn 0.2480 0.9687 -0.0136
vn 0.2481 0.9686 -0.0136
vn -0.6947 -0.6722 -0.2560
vn -0.4317 -0.8930 -0.1271
vn -0.4459 -0.8864 0.1244
vn -0.6203 -0.7474 0.2381
vn -0.7826 -0.6213 -0.0395
vn -0.7826 -0.6212 -0.0395
vn 0.9890 -0.0719 0.1294
vn 0.9890 -0.0718 0.1294
vn 0.5144 -0.8477 0.1294
vn 0.4979 -0.8568 -0.1341
vn 0.9895 -0.0532 -0.1341
vn -0.6719 -0.4477 0.5900
vn 0.1170 -0.8357 0.5365
vn 0.7976 0.2764 0.5362
vn 0.7976 0.2763 0.5362
vn 0.0933 0.8021 0.5898
vn 0.0933 0.8022 0.5898
vn -0.3122 -0.9455 0.0920
vn -0.3122 -0.9456 0.0920
vn -0.6769 -0.7304 0.0907
vn -0.6770 -0.7304 0.0907
vn -0.6965 -0.7119 -0.0899
vn -0.3380 -0.9366 -0.0925
vn 0.6799 0.7274 -0.0925
vn 0.3166 0.9443 -0.0901
vn 0.3423 0.9352 0.0905
vn 0.6999 0.7083 0.0920
vn -0.0245 -0.8133 -0.5813
vn -0.7682 -0.3294 -0.5490
vn -0.0567 0.8339 -0.5490
vn 0.7128 0.3921 -0.5815
vn -0.5117 0.8503 -0.1230
vn -0.9900 0.0688 -0.1229
vn -0.9900 0.0687 -0.1229
vn -0.9906 0.0507 0.1273
vn -0.9906 0.0508 0.1273
vn -0.4960 0.8590 0.1271
vt 0.123414 0.395157
vt 0.133021 0.384450
vt 0.170144 0.384681
vt 0.133693 0.397522
vt 0.145717 0.374220
vt 0.178776 0.371583
vt 0.215497 0.375860
vt 0.222780 0.387728
vt 0.216815 0.399728
vt 0.180951 0.400602
vt 0.147553 0.403942
vt 0.121412 0.413107
vt 0.116605 0.407582
vt 0.141522 0.415862
vt 0.146990 0.425855
vt 0.132724 0.426667
vt 0.668779 0.064496
vt 0.663254 0.070476
vt 0.649694 0.062181
vt 0.655134 0.058954
vt 0.300263 0.645455
vt 0.280828 0.649450
vt 0.271577 0.627655
vt 0.298073 0.627559
vt 0.698662 0.009316
vt 0.695135 0.024734
vt 0.677504 0.024303
vt 0.676866 0.000000
vt 0.659344 0.025380
vt 0.655027 0.009083
vt 0.278960 0.605816
vt 0.299619 0.609664
vt 0.402411 0.965030
vt 0.397329 0.946670
vt 0.420286 0.938896
vt 0.420307 0.963483
vt 0.210475 0.199163
vt 0.220032 0.193045
vt 0.237495 0.205191
vt 0.217750 0.212966
vt 0.243409 0.399612
vt 0.225945 0.411686
vt 0.302435 0.149384
vt 0.312622 0.138246
vt 0.330346 0.146143
vt 0.309717 0.156129
vt 0.438203 0.962818
vt 0.443263 0.946792
vt 0.681204 0.067884
vt 0.679273 0.050451
vt 0.691912 0.063362
vt 0.654890 0.044798
vt 0.700732 0.042630
vt 0.232654 0.146256
vt 0.219959 0.153314
vt 0.205749 0.140403
vt 0.222980 0.132582
vt 0.326431 0.605742
vt 0.333689 0.627559
vt 0.355624 0.609663
vt 0.365163 0.627559
vt 0.356666 0.645455
vt 0.327933 0.649376
vt 0.183670 0.416035
vt 0.216389 0.423454
vt 0.180251 0.427837
vt 0.123523 0.236002
vt 0.122806 0.216584
vt 0.161803 0.222193
vt 0.140639 0.252299
vt 0.116605 0.202428
vt 0.126810 0.199201
vt 0.141077 0.193536
vt 0.174337 0.197530
vt 0.217303 0.231326
vt 0.188110 0.250019
vt 0.161298 0.264587
vt 0.311196 0.122221
vt 0.264258 0.124273
vt 0.282463 0.104156
vt 0.265713 0.147583
vt 0.218005 0.114686
vt 0.235359 0.099268
vt 0.254793 0.088893
vt 0.628811 0.262631
vt 0.622645 0.253709
vt 0.661834 0.253711
vt 0.660858 0.264587
vt 0.628807 0.244788
vt 0.660854 0.242833
vt 0.691970 0.244788
vt 0.699067 0.253712
vt 0.691973 0.262633
vt 0.634818 0.694815
vt 0.630577 0.707876
vt 0.615730 0.707875
vt 0.626832 0.691954
vt 0.640488 0.720934
vt 0.634326 0.723794
vt 0.341359 0.720521
vt 0.359955 0.704602
vt 0.366121 0.707465
vt 0.356211 0.720523
vt 0.352462 0.736442
vt 0.360451 0.733581
vt 0.669942 0.707873
vt 0.672535 0.723794
vt 0.667351 0.691952
vt 0.700815 0.694812
vt 0.709309 0.707870
vt 0.703651 0.720930
vt 0.429283 0.707466
vt 0.434941 0.720523
vt 0.395577 0.720523
vt 0.398168 0.704604
vt 0.426447 0.733581
vt 0.392983 0.736442
vt 0.724159 0.707871
vt 0.710748 0.723792
vt 0.707873 0.691952
vt 0.449788 0.720525
vt 0.433502 0.736444
vt 0.436377 0.704604
vt 0.384237 0.241587
vt 0.391291 0.250512
vt 0.349794 0.250505
vt 0.350773 0.239628
vt 0.384234 0.259433
vt 0.350769 0.261383
vt 0.318237 0.259422
vt 0.310251 0.250499
vt 0.318241 0.241579
s 1
usemtl Rock
f 8/1/1 99/2/1 129/3/1
f 8/1/1 129/3/1 118/4/1
f 40/5/2 96/6/2 131/3/2
f 40/5/2 131/3/2 101/2/3
f 34/7/4 89/8/4 130/3/4
f 34/7/4 130/3/4 95/6/4
f 2/9/5 124/10/5 128/3/5
f 2/9/5 128/3/5 88/8/5
f 5/11/6 117/4/6 127/3/7
f 5/11/6 127/3/7 123/10/6
f 7/1/8 116/4/8 133/12/9
f 7/1/8 133/12/9 103/13/9
f 115/4/10 4/11/10 71/14/10
s 0
f 115/4/11 71/14/11 132/12/11
s 1
f 134/12/12 74/14/13 29/15/12
f 134/12/12 29/15/12 119/16/12
f 106/17/14 135/18/14 120/19/15
f 106/17/14 120/19/15 38/20/15
f 11/21/16 64/22/16 137/23/16
f 11/21/16 137/23/16 44/24/16
f 63/25/17 25/26/18 67/27/17
f 63/25/17 67/27/17 136/28/17
f 138/28/19 70/27/19 23/29/19
f 138/28/19 23/29/19 51/30/19
f 46/24/20 139/23/20 52/31/20
f 46/24/20 52/31/20 14/32/20
f 17/33/21 79/34/22 143/35/23
f 17/33/21 143/35/23 62/36/23
f 32/37/24 86/38/24 144/39/24
f 32/37/24 144/39/24 80/40/24
f 1/9/25 87/8/25 140/41/25
f 1/9/25 140/41/25 83/42/26
f 35/43/27 92/44/28 142/45/28
f 35/43/27 142/45/28 90/46/27
f 20/47/29 60/36/29 141/35/29
f 20/47/29 141/35/29 91/48/30
f 9/49/31 104/17/32 146/50/31
f 9/49/31 146/50/31 100/51/31
f 37/20/33 107/52/33 148/50/33
f 37/20/33 148/50/33 105/17/33
f 22/29/34 69/27/35 149/50/36
f 22/29/34 149/50/36 108/52/35
f 26/26/37 111/53/38 145/50/39
f 26/26/37 145/50/39 68/27/40
f 41/54/41 102/55/42 147/56/41
f 41/54/41 147/56/41 112/57/41
f 13/32/43 56/58/43 153/59/43
f 13/32/43 153/59/43 45/24/43
f 55/58/44 16/60/44 61/61/44
f 55/58/44 61/61/44 152/59/44
f 150/59/45 59/61/45 19/62/45
f 150/59/45 19/62/45 47/63/46
f 43/24/47 151/59/48 48/63/48
f 43/24/47 48/63/48 10/21/48
f 3/9/49 84/42/49 155/64/49
f 3/9/49 155/64/49 126/10/49
f 85/42/50 31/65/50 76/66/51
f 85/42/50 76/66/51 157/64/51
f 156/64/52 75/66/52 28/15/52
f 156/64/52 28/15/52 73/14/53
f 125/10/54 154/64/54 72/14/54
f 125/10/54 72/14/54 6/11/54
f 24/67/55 110/68/55 159/69/55
f 24/67/55 159/69/55 53/70/55
f 39/71/56 121/72/57 158/69/56
f 39/71/56 158/69/56 109/68/56
f 30/73/58 77/74/58 162/69/59
f 30/73/58 162/69/59 122/72/58
f 33/37/60 82/40/61 163/69/62
f 33/37/60 163/69/62 78/74/62
f 18/75/63 58/76/64 161/69/64
f 18/75/63 161/69/64 81/40/63
f 15/77/65 54/70/66 160/69/67
f 15/77/65 160/69/67 57/76/66
f 21/78/68 93/44/68 164/79/68
f 21/78/68 164/79/68 49/80/68
f 36/43/69 97/81/69 167/79/69
f 36/43/69 167/79/69 94/44/69
f 42/54/70 114/57/70 168/79/70
f 42/54/70 168/79/70 98/81/70
f 27/82/71 66/83/71 166/79/71
f 27/82/71 166/79/71 113/57/71
f 12/84/72 50/80/73 165/79/72
f 12/84/72 165/79/72 65/83/72
f 190/85/74 231/86/74 243/87/75
f 190/85/74 243/87/75 237/88/75
f 229/86/76 178/89/76 209/90/76
f 229/86/76 209/90/76 241/87/76
f 242/87/77 210/90/77 175/91/77
f 242/87/77 175/91/77 197/92/77
f 238/88/78 244/87/78 199/92/78
f 238/88/78 199/92/78 181/93/78
f 173/94/79 214/95/79 246/96/79
f 173/94/79 246/96/79 222/97/79
f 213/95/80 179/98/80 230/99/80
f 213/95/80 230/99/80 245/96/80
f 247/100/81 232/101/82 191/102/82
f 247/100/81 191/102/82 233/103/81
f 224/104/83 248/100/84 234/103/84
f 224/104/83 234/103/84 188/105/83
f 180/98/85 215/95/85 249/106/85
f 180/98/85 249/106/85 211/107/86
f 216/95/87 174/94/87 220/108/88
f 216/95/87 220/108/88 252/106/88
f 250/106/89 219/108/89 171/109/89
f 250/106/89 171/109/89 203/110/89
f 212/107/90 251/106/90 204/110/90
f 212/107/90 204/110/90 177/111/90
f 183/112/91 196/113/91 255/114/91
f 183/112/91 255/114/91 240/115/91
f 195/113/92 186/116/92 227/117/92
f 195/113/92 227/117/92 254/114/92
f 256/114/93 228/117/93 189/105/93
f 256/114/93 189/105/93 236/103/93
f 239/115/94 253/114/94 235/103/94
f 239/115/94 235/103/94 192/102/94
f 176/111/95 202/110/95 258/118/95
f 176/111/95 258/118/95 198/119/95
f 201/110/96 170/109/96 206/120/96
f 201/110/96 206/120/96 257/118/96
f 259/121/97 208/122/97 185/116/97
f 259/121/97 185/116/97 193/113/97
f 200/123/98 260/121/98 194/113/98
f 200/123/98 194/113/98 182/112/98
f 184/124/99 207/125/99 263/126/99
f 184/124/99 263/126/99 225/127/99
f 205/125/100 169/128/100 217/129/101
f 205/125/100 217/129/101 261/126/101
f 262/126/102 218/129/103 172/130/103
f 262/126/102 172/130/103 221/131/103
f 226/127/104 264/126/104 223/131/104
f 226/127/104 223/131/104 187/132/104
