# Blender 5.0.1
# www.blender.org
mtllib Rock_8.mtl
o Rock_8
v -0.916167 0.278193 0.003777
v -0.916167 0.278193 0.003777
v -0.916167 0.278193 0.003777
v -0.949918 1.034103 -0.012069
v -0.949918 1.034103 -0.012069
v -0.949918 1.034103 -0.012069
v -0.471650 0.278192 1.023781
v -0.471650 0.278192 1.023781
v -0.471650 0.278192 1.023781
v -0.530803 1.034102 0.986638
v -0.530803 1.034102 0.986638
v -0.530803 1.034102 0.986638
v 0.166386 0.278192 0.985454
v 0.166386 0.278192 0.985454
v 0.166386 0.278192 0.985454
v 0.060428 1.034102 0.944393
v 0.060428 1.034102 0.944393
v 0.060428 1.034102 0.944393
v -0.556184 0.278193 -0.898258
v -0.556184 0.278193 -0.898258
v -0.556184 0.278193 -0.898258
v -0.616128 1.034103 -0.905308
v -0.616128 1.034103 -0.905308
v -0.616128 1.034103 -0.905308
v 0.472486 1.034103 -0.976233
v 0.472486 1.034103 -0.976233
v 0.472486 1.034103 -0.976233
v 0.594270 0.278192 -0.969135
v 0.594270 0.278192 -0.969135
v 0.594270 0.278192 -0.969135
v 0.841543 1.034102 -0.211320
v 0.841543 1.034102 -0.211320
v 0.841543 1.034102 -0.211320
v 0.983940 0.278192 -0.191510
v 0.983940 0.278192 -0.191510
v 0.983940 0.278192 -0.191510
v -1.075067 0.656148 -0.008144
v -1.075067 0.656148 -0.008144
v -1.075067 0.656148 -0.008144
v -1.075067 0.656148 -0.008144
v -0.704383 1.116926 0.475858
v -0.704383 1.116926 0.475858
v -0.704383 1.116926 0.475858
v -0.704383 1.116926 0.475858
v -0.549563 0.656147 1.175679
v -0.549563 0.656147 1.175679
v -0.549563 0.656147 1.175679
v -0.549563 0.656147 1.175679
v -0.645353 0.195369 0.506153
v -0.645353 0.195369 0.506153
v -0.645353 0.195369 0.506153
v -0.645353 0.195369 0.506153
v -0.166101 0.195369 1.048368
v -0.166101 0.195369 1.048368
v -0.166101 0.195369 1.048368
v -0.166101 0.195369 1.048368
v 0.112179 0.656147 1.144240
v 0.112179 0.656147 1.144240
v 0.112179 0.656147 1.144240
v 0.112179 0.656147 1.144240
v -0.265941 1.116926 0.997587
v -0.265941 1.116926 0.997587
v -0.265941 1.116926 0.997587
v -0.265941 1.116926 0.997587
v -0.687606 0.656148 -1.048997
v -0.687606 0.656148 -1.048997
v -0.687606 0.656148 -1.048997
v -0.687606 0.656148 -1.048997
v -0.769586 0.195369 -0.462195
v -0.769586 0.195369 -0.462195
v -0.769586 0.195369 -0.462195
v -0.769586 0.195369 -0.462195
v -0.823260 1.116926 -0.475327
v -0.823260 1.116926 -0.475327
v -0.823260 1.116926 -0.475327
v -0.823260 1.116926 -0.475327
v -0.101635 1.116926 -0.927093
v -0.101635 1.116926 -0.927093
v -0.101635 1.116926 -0.927093
v -0.101635 1.116926 -0.927093
v 0.641492 0.656148 -1.120902
v 0.641492 0.656148 -1.120902
v 0.641492 0.656148 -1.120902
v 0.641492 0.656148 -1.120902
v 0.008513 0.195369 -0.916051
v 0.008513 0.195369 -0.916051
v 0.008513 0.195369 -0.916051
v 0.008513 0.195369 -0.916051
v 0.699353 1.116926 -0.616222
v 0.699353 1.116926 -0.616222
v 0.699353 1.116926 -0.616222
v 0.699353 1.116926 -0.616222
v 1.097667 0.656147 -0.251771
v 1.097667 0.656147 -0.251771
v 1.097667 0.656147 -0.251771
v 1.097667 0.656147 -0.251771
v 0.864637 0.195369 -0.602106
v 0.864637 0.195369 -0.602106
v 0.864637 0.195369 -0.602106
v 0.864637 0.195369 -0.602106
v 0.565790 0.195369 0.393964
v 0.565790 0.195369 0.393964
v 0.565790 0.195369 0.393964
v 0.565790 0.195369 0.393964
v 0.416171 1.116926 0.357274
v 0.416171 1.116926 0.357274
v 0.416171 1.116926 0.357274
v 0.416171 1.116926 0.357274
v -0.267429 0.656147 1.359265
v -0.267429 0.656147 1.359265
v -0.267429 0.656147 1.359265
v -0.267429 0.656147 1.359265
v -0.044844 0.656148 -1.194902
v -0.044844 0.656148 -1.194902
v -0.044844 0.656148 -1.194902
v -0.044844 0.656148 -1.194902
v -0.843768 0.656148 0.644865
v -0.843768 0.656148 0.644865
v -0.843768 0.656148 0.644865
v -0.843768 0.656148 0.644865
v -0.001098 -0.000502 0.000217
v -0.001098 -0.000502 0.000217
v -0.001098 -0.000502 0.000217
v -0.001098 -0.000502 0.000217
v -0.001098 -0.000502 0.000217
v -0.001098 -0.000502 0.000217
v -1.032844 0.656148 -0.614005
v -1.032844 0.656148 -0.614005
v -1.032844 0.656148 -0.614005
v -1.032844 0.656148 -0.614005
v 0.658162 0.656147 0.495089
v 0.658162 0.656147 0.495089
v 0.658162 0.656147 0.495089
v 0.658162 0.656147 0.495089
v -0.152535 1.312797 -0.036849
v -0.152535 1.312797 -0.036849
v -0.152535 1.312797 -0.036849
v -0.152535 1.312797 -0.036849
v -0.152535 1.312797 -0.036849
v -0.152535 1.312797 -0.036849
v 1.069824 0.656147 -0.800208
v 1.069824 0.656147 -0.800208
v 1.069824 0.656147 -0.800208
v 1.069824 0.656147 -0.800208
vn -0.3503 -0.5088 0.7864
vn 0.3733 -0.3996 0.8372
vn 0.3542 0.5348 0.7671
vn 0.3543 0.5348 0.7671
vn -0.3551 0.5191 0.7775
vn -0.3551 0.5191 0.7774
vn -0.3550 0.5191 0.7775
vn -0.1595 0.4371 -0.8852
vn 0.0472 0.4510 -0.8913
vn 0.0443 -0.4560 -0.8889
vn -0.1501 -0.4767 -0.8661
vn -0.1501 -0.4767 -0.8662
vn -0.8210 -0.4086 0.3987
vn -0.8495 0.3344 0.4081
vn -0.8744 0.3459 0.3403
vn -0.8462 -0.4116 0.3383
vn -0.2910 -0.9560 0.0373
vn -0.1286 -0.9669 -0.2205
vn -0.1285 -0.9669 -0.2205
vn 0.0835 -0.9701 -0.2277
vn 0.2867 -0.9542 0.0860
vn 0.2085 -0.9498 0.2332
vn -0.1956 -0.9653 0.1729
vn -0.7013 -0.5098 -0.4983
vn -0.8775 -0.4646 -0.1188
vn -0.8774 -0.4648 -0.1186
vn -0.9161 0.3841 -0.1150
vn -0.7446 0.4233 -0.5161
vn -0.7447 0.4233 -0.5161
vn -0.7449 0.4230 -0.5159
vn -0.7447 0.4232 -0.5160
vn 0.7007 0.4637 0.5422
vn 0.7685 -0.2210 0.6004
vn 0.8251 -0.2279 0.5170
vn 0.7409 0.4930 0.4561
vn -0.1448 0.9620 -0.2314
vn -0.1449 0.9620 -0.2314
vn -0.3285 0.9436 0.0411
vn -0.2159 0.9594 0.1814
vn 0.2107 0.9514 0.2245
vn 0.2824 0.9558 0.0821
vn 0.0887 0.9695 -0.2286
vn 0.5470 0.5861 -0.5978
vn 0.5470 0.5860 -0.5978
vn 0.7867 0.6111 -0.0872
vn 0.9178 -0.3822 -0.1078
vn 0.5966 -0.4552 -0.6609
vt 0.539182 0.929243
vt 0.543104 0.942810
vt 0.521287 0.938311
vt 0.521287 0.925783
vt 0.539182 0.957573
vt 0.521287 0.955166
vt 0.503391 0.952868
vt 0.499470 0.938377
vt 0.503391 0.926616
vt 0.686508 0.234943
vt 0.682587 0.212098
vt 0.704404 0.209577
vt 0.704404 0.238117
vt 0.686508 0.186607
vt 0.704404 0.179102
vt 0.722299 0.181199
vt 0.726221 0.207208
vt 0.722299 0.232281
vt 0.123797 0.561141
vt 0.116605 0.543245
vt 0.141738 0.543245
vt 0.148306 0.565062
vt 0.125556 0.525350
vt 0.149741 0.521428
vt 0.172843 0.525350
vt 0.172657 0.543245
vt 0.172093 0.561141
vt 0.275936 0.000000
vt 0.297999 0.006508
vt 0.276105 0.040631
vt 0.252150 0.012025
vt 0.318646 0.015984
vt 0.319489 0.041057
vt 0.322002 0.067066
vt 0.304624 0.079071
vt 0.285183 0.084368
vt 0.257462 0.065801
vt 0.229456 0.048067
vt 0.226477 0.033304
vt 0.227641 0.019737
vt 0.214803 0.561141
vt 0.194156 0.565062
vt 0.201344 0.543245
vt 0.221940 0.543245
vt 0.194778 0.521428
vt 0.215137 0.525350
vt 0.476042 0.152861
vt 0.466580 0.134966
vt 0.497316 0.134966
vt 0.503842 0.156783
vt 0.474098 0.117070
vt 0.502104 0.113149
vt 0.529826 0.117070
vt 0.532679 0.134966
vt 0.530764 0.152861
vt 0.400350 0.224807
vt 0.379991 0.234004
vt 0.359230 0.204223
vt 0.401382 0.201962
vt 0.358057 0.239628
vt 0.334954 0.228725
vt 0.310770 0.221018
vt 0.310251 0.209258
vt 0.312770 0.194767
vt 0.340569 0.178971
vt 0.367491 0.160084
vt 0.386663 0.166397
vt 0.403708 0.176471
vt 0.682587 0.176533
vt 0.704404 0.160084
vt 0.549935 0.156783
vt 0.558646 0.134966
vt 0.549267 0.113149
vt 0.726221 0.169194
s 1
usemtl Rock
f 8/1/1 54/2/1 110/3/1
f 8/1/1 110/3/1 46/4/1
f 53/2/2 14/5/2 58/6/2
f 53/2/2 58/6/2 109/3/2
f 112/3/3 60/6/4 17/7/3
f 112/3/3 17/7/3 62/8/3
f 48/4/5 111/3/6 61/8/5
f 48/4/5 61/8/5 11/9/7
f 23/10/8 77/11/8 115/12/8
f 23/10/8 115/12/8 68/13/8
f 78/11/9 25/14/9 83/15/9
f 78/11/9 83/15/9 116/12/9
f 113/12/10 82/15/10 29/16/10
f 113/12/10 29/16/10 85/17/10
f 65/13/11 114/12/11 86/17/11
f 65/13/11 86/17/11 19/18/12
f 7/19/13 45/20/13 117/21/13
f 7/19/13 117/21/13 49/22/13
f 47/20/14 10/23/14 41/24/14
f 47/20/14 41/24/14 119/21/14
f 120/21/15 42/24/15 4/25/15
f 120/21/15 4/25/15 39/26/15
f 50/22/16 118/21/16 37/26/16
f 50/22/16 37/26/16 1/27/16
f 3/28/17 71/29/17 123/30/17
f 3/28/17 123/30/17 51/31/17
f 21/32/18 87/33/18 125/30/19
f 21/32/18 125/30/19 72/29/18
f 30/34/20 100/35/20 126/30/20
f 30/34/20 126/30/20 88/33/20
f 36/36/21 104/37/21 122/30/21
f 36/36/21 122/30/21 99/35/21
f 15/38/22 55/39/22 121/30/22
f 15/38/22 121/30/22 103/37/22
f 9/40/23 52/31/23 124/30/23
f 9/40/23 124/30/23 56/39/23
f 20/41/24 70/42/24 128/43/24
f 20/41/24 128/43/24 66/44/24
f 69/42/25 2/27/26 38/26/26
f 69/42/25 38/26/26 127/43/26
f 129/43/27 40/26/27 5/25/27
f 129/43/27 5/25/27 73/45/27
f 67/44/28 130/43/29 74/45/30
f 67/44/28 74/45/30 22/46/31
f 16/47/32 59/48/32 133/49/32
f 16/47/32 133/49/32 105/50/32
f 57/48/33 13/51/33 101/52/33
f 57/48/33 101/52/33 131/49/33
f 132/49/34 102/52/34 34/53/34
f 132/49/34 34/53/34 93/54/34
f 106/50/35 134/49/35 95/54/35
f 106/50/35 95/54/35 31/55/35
f 24/56/36 76/57/37 139/58/37
f 24/56/36 139/58/37 79/59/37
f 6/60/38 43/61/38 135/58/38
f 6/60/38 135/58/38 75/57/38
f 12/62/39 64/63/39 138/58/39
f 12/62/39 138/58/39 44/61/39
f 18/64/40 107/65/40 136/58/40
f 18/64/40 136/58/40 63/63/40
f 33/66/41 91/67/41 137/58/41
f 33/66/41 137/58/41 108/65/41
f 27/68/42 80/59/42 140/58/42
f 27/68/42 140/58/42 92/67/42
f 26/14/43 89/69/43 143/70/43
f 26/14/43 143/70/43 84/15/44
f 90/71/45 32/55/45 96/54/45
f 90/71/45 96/54/45 144/72/45
f 141/72/46 94/54/46 35/53/46
f 141/72/46 35/53/46 97/73/46
f 81/15/47 142/70/47 98/74/47
f 81/15/47 98/74/47 28/16/47
