<svg style="height: 16px; width: 16px;" xmlns="http://www.w3.org/2000/svg" viewBox="0 0 512 512"><path d="M0 0h512v512H0z" fill="#ff5555" fill-opacity="0"></path><g class="" style="" transform="translate(0,0)"><path d="M105 105v302h151c148 0 148-302 0-302H105zm-89 46v18h71v-18H16zm400 82c-12.8 0-23 10.2-23 23s10.2 23 23 23 23-10.2 23-23-10.2-23-23-23zm40 14c.6 2.9 1 5.9 1 9 0 3.1-.4 6.1-1 9h40v-18h-40zM16 343v18h71v-18H16z" fill="#ff5555" fill-opacity="1" transform="translate(0, 0) scale(1, 1) rotate(-90, 256, 256) skewX(0) skewY(0)"></path></g></svg>