# Blender 5.1.1
# www.blender.org
mtllib SpikeTrap.mtl
o spiketrap
v 0.000000 -0.197435 -1.000000
v 0.382683 -0.197435 -0.923880
v 0.307413 0.292900 -0.742160
v 0.707107 -0.197435 -0.707107
v 0.568025 0.292900 -0.568025
v 0.923880 -0.197435 -0.382683
v 1.000000 -0.197435 0.000000
v 0.923880 -0.197435 0.382683
v 0.742160 0.292900 0.307413
v 0.707107 -0.197435 0.707107
v 0.568025 0.292900 0.568025
v 0.382683 -0.197435 0.923880
v 0.000000 -0.197435 1.000000
v -0.382683 -0.197435 0.923880
v -0.307413 0.292900 0.742160
v -0.707107 -0.197435 0.707107
v -0.568025 0.292900 0.568025
v -0.923880 -0.197435 0.382683
v -1.000000 -0.197435 0.000000
v -0.923880 -0.197435 -0.382683
v -0.707107 -0.197435 -0.707107
v -0.568025 0.292900 -0.568025
v -0.382683 -0.197435 -0.923880
v -0.307413 0.292900 -0.742160
v 0.143136 0.492900 -0.345561
v 0.000000 0.492900 -0.374032
v 0.264481 0.492900 -0.264481
v 0.345561 0.492900 -0.143136
v 0.374032 0.492900 0.000000
v 0.345561 0.492900 0.143136
v 0.264481 0.492900 0.264481
v 0.143136 0.492900 0.345561
v 0.000000 0.492900 0.374032
v -0.143136 0.492900 0.345561
v -0.264481 0.492900 0.264481
v -0.345561 0.492900 0.143136
v -0.374032 0.492900 0.000000
v -0.345561 0.492900 -0.143136
v -0.264481 0.492900 -0.264481
v -0.143136 0.492900 -0.345561
v 0.143136 0.188933 -0.345561
v 0.000000 0.188933 -0.374032
v 0.264481 0.188933 -0.264481
v 0.345561 0.188933 -0.143136
v 0.374032 0.188933 0.000000
v 0.345561 0.188933 0.143136
v 0.264481 0.188933 0.264481
v 0.143136 0.188933 0.345561
v 0.000000 0.188933 0.374032
v -0.143136 0.188933 0.345561
v -0.264481 0.188933 0.264481
v -0.345561 0.188933 0.143136
v -0.374032 0.188933 0.000000
v -0.345561 0.188933 -0.143136
v -0.264481 0.188933 -0.264481
v -0.143136 0.188933 -0.345561
v 0.382683 0.099988 -0.923880
v 0.345048 0.267055 -0.833020
v 0.372599 0.196444 -0.899534
v 0.000000 0.099988 -1.000000
v 0.000000 0.292900 -0.803308
v 0.000000 0.196444 -0.973648
v 0.000000 0.267055 -0.901654
v 0.707107 0.099988 -0.707107
v 0.637566 0.267055 -0.637566
v 0.688473 0.196444 -0.688473
v 0.742160 0.292900 -0.307413
v 0.923880 0.099988 -0.382683
v 0.833020 0.267055 -0.345048
v 0.899534 0.196444 -0.372599
v 0.803308 0.292900 0.000000
v 1.000000 0.099988 0.000000
v 0.901654 0.267055 0.000000
v 0.973648 0.196444 0.000000
v 0.923880 0.099988 0.382683
v 0.833020 0.267055 0.345048
v 0.899534 0.196444 0.372599
v 0.707107 0.099988 0.707107
v 0.637566 0.267055 0.637566
v 0.688473 0.196444 0.688473
v 0.307413 0.292900 0.742160
v 0.382683 0.099988 0.923880
v 0.345048 0.267055 0.833020
v 0.372599 0.196444 0.899534
v 0.000000 0.292900 0.803308
v 0.000000 0.099988 1.000000
v 0.000000 0.267055 0.901654
v 0.000000 0.196444 0.973648
v -0.382683 0.099988 0.923880
v -0.345048 0.267055 0.833020
v -0.372599 0.196444 0.899534
v -0.707107 0.099988 0.707107
v -0.637566 0.267055 0.637566
v -0.688473 0.196444 0.688473
v -0.742160 0.292900 0.307413
v -0.923880 0.099988 0.382683
v -0.833020 0.267055 0.345048
v -0.899534 0.196444 0.372599
v -0.803308 0.292900 0.000000
v -1.000000 0.099988 0.000000
v -0.901654 0.267055 0.000000
v -0.973648 0.196444 0.000000
v -0.742160 0.292900 -0.307413
v -0.923880 0.099988 -0.382683
v -0.833020 0.267055 -0.345048
v -0.899534 0.196444 -0.372599
v -0.707107 0.099988 -0.707107
v -0.637566 0.267055 -0.637566
v -0.688473 0.196444 -0.688473
v -0.382683 0.099988 -0.923880
v -0.345048 0.267055 -0.833020
v -0.372599 0.196444 -0.899534
v 0.229377 0.492900 -0.553764
v 0.268395 0.466105 -0.647962
v 0.296958 0.392900 -0.716919
v 0.000000 0.492900 -0.599390
v 0.000000 0.392900 -0.775988
v 0.000000 0.466105 -0.701349
v 0.423833 0.492900 -0.423833
v 0.495929 0.466105 -0.495929
v 0.548706 0.392900 -0.548706
v 0.553764 0.492900 -0.229377
v 0.647962 0.466105 -0.268395
v 0.716919 0.392900 -0.296958
v 0.599390 0.492900 0.000000
v 0.701349 0.466105 0.000000
v 0.775988 0.392900 0.000000
v 0.553764 0.492900 0.229377
v 0.647962 0.466105 0.268395
v 0.716919 0.392900 0.296958
v 0.423833 0.492900 0.423833
v 0.495929 0.466105 0.495929
v 0.548706 0.392900 0.548706
v 0.229377 0.492900 0.553764
v 0.268395 0.466105 0.647962
v 0.296958 0.392900 0.716919
v 0.000000 0.492900 0.599390
v 0.000000 0.466105 0.701349
v 0.000000 0.392900 0.775988
v -0.229377 0.492900 0.553764
v -0.268395 0.466105 0.647962
v -0.296958 0.392900 0.716919
v -0.423833 0.492900 0.423833
v -0.495929 0.466105 0.495929
v -0.548706 0.392900 0.548706
v -0.553764 0.492900 0.229377
v -0.647962 0.466105 0.268395
v -0.716919 0.392900 0.296958
v -0.599390 0.492900 0.000000
v -0.701349 0.466105 0.000000
v -0.775988 0.392900 0.000000
v -0.553764 0.492900 -0.229377
v -0.647962 0.466105 -0.268395
v -0.716919 0.392900 -0.296958
v -0.423833 0.492900 -0.423833
v -0.495929 0.466105 -0.495929
v -0.548706 0.392900 -0.548706
v -0.229377 0.492900 -0.553764
v -0.268395 0.466105 -0.647962
v -0.296958 0.392900 -0.716919
vn -0.0000 -1.0000 -0.0000
vn 0.3827 -0.0000 -0.9239
vn -0.0000 -0.0000 -1.0000
vn -0.0000 1.0000 -0.0000
vn -0.7071 -0.0000 0.7071
vn -0.3827 -0.0000 0.9239
vn 0.7071 -0.0000 -0.7071
vn -0.9239 -0.0000 0.3827
vn 0.9239 -0.0000 -0.3827
vn -1.0000 -0.0000 -0.0000
vn 1.0000 -0.0000 -0.0000
vn -0.9239 -0.0000 -0.3827
vn 0.9239 -0.0000 0.3827
vn -0.7071 -0.0000 -0.7071
vn 0.7071 -0.0000 0.7071
vn -0.3827 -0.0000 -0.9239
vn 0.3827 -0.0000 0.9239
vn -0.0000 -0.0000 1.0000
vn 0.3794 0.1308 -0.9159
vn -0.0000 0.1308 -0.9914
vn -0.0000 0.4926 -0.8702
vn 0.3330 0.4926 -0.8040
vn -0.0000 0.8559 -0.5172
vn 0.1979 0.8559 -0.4778
vn -0.0000 0.9672 -0.2542
vn 0.0973 0.9672 -0.2348
vn 0.7010 0.1308 -0.7010
vn 0.6154 0.4926 -0.6154
vn 0.3657 0.8559 -0.3657
vn 0.1797 0.9672 -0.1797
vn 0.9159 0.1308 -0.3794
vn 0.8040 0.4926 -0.3330
vn 0.4778 0.8559 -0.1979
vn 0.2348 0.9672 -0.0973
vn 0.9914 0.1308 -0.0000
vn 0.8702 0.4926 -0.0000
vn 0.5172 0.8559 -0.0000
vn 0.2542 0.9672 -0.0000
vn 0.9159 0.1308 0.3794
vn 0.8040 0.4926 0.3330
vn 0.4778 0.8559 0.1979
vn 0.2348 0.9672 0.0973
vn 0.7010 0.1308 0.7010
vn 0.6154 0.4926 0.6154
vn 0.3657 0.8559 0.3657
vn 0.1797 0.9672 0.1797
vn 0.3794 0.1308 0.9159
vn 0.3330 0.4926 0.8040
vn 0.1979 0.8559 0.4778
vn 0.0973 0.9672 0.2348
vn -0.0000 0.1308 0.9914
vn -0.0000 0.4926 0.8702
vn -0.0000 0.8559 0.5172
vn -0.0000 0.9672 0.2542
vn -0.3794 0.1308 0.9159
vn -0.3330 0.4926 0.8040
vn -0.1979 0.8559 0.4778
vn -0.0973 0.9672 0.2348
vn -0.7010 0.1308 0.7010
vn -0.6154 0.4926 0.6154
vn -0.3657 0.8559 0.3657
vn -0.1797 0.9672 0.1797
vn -0.9159 0.1308 0.3794
vn -0.8040 0.4926 0.3330
vn -0.4778 0.8559 0.1979
vn -0.2348 0.9672 0.0973
vn -0.9914 0.1308 -0.0000
vn -0.8702 0.4926 -0.0000
vn -0.5172 0.8559 -0.0000
vn -0.2542 0.9672 -0.0000
vn -0.9159 0.1308 -0.3794
vn -0.8040 0.4926 -0.3330
vn -0.4778 0.8559 -0.1979
vn -0.2348 0.9672 -0.0973
vn -0.7010 0.1308 -0.7010
vn -0.6154 0.4926 -0.6154
vn -0.3657 0.8559 -0.3657
vn -0.1797 0.9672 -0.1797
vn -0.3794 0.1308 -0.9159
vn -0.3330 0.4926 -0.8040
vn -0.1979 0.8559 -0.4778
vn -0.0973 0.9672 -0.2348
vn 0.3692 0.2635 -0.8912
vn -0.0000 0.2635 -0.9646
vn -0.0000 0.9896 -0.1438
vn 0.0550 0.9896 -0.1329
vn 0.6821 0.2635 -0.6821
vn 0.1017 0.9896 -0.1017
vn 0.8912 0.2635 -0.3692
vn 0.1329 0.9896 -0.0550
vn 0.9646 0.2635 -0.0000
vn 0.1438 0.9896 -0.0000
vn 0.8912 0.2635 0.3692
vn 0.1329 0.9896 0.0550
vn 0.6821 0.2635 0.6821
vn 0.1017 0.9896 0.1017
vn 0.3692 0.2635 0.8912
vn 0.0550 0.9896 0.1329
vn -0.0000 0.2635 0.9646
vn -0.0000 0.9896 0.1438
vn -0.3692 0.2635 0.8912
vn -0.0550 0.9896 0.1329
vn -0.6821 0.2635 0.6821
vn -0.1017 0.9896 0.1017
vn -0.8912 0.2635 0.3692
vn -0.1329 0.9896 0.0550
vn -0.9646 0.2635 -0.0000
vn -0.1438 0.9896 -0.0000
vn -0.8912 0.2635 -0.3692
vn -0.1329 0.9896 -0.0550
vn -0.6821 0.2635 -0.6821
vn -0.1017 0.9896 -0.1017
vn -0.3692 0.2635 -0.8912
vn -0.0550 0.9896 -0.1329
vt 0.507935 0.811709
vt 0.452023 0.755797
vt 0.421763 0.682743
vt 0.421763 0.603671
vt 0.452023 0.530618
vt 0.507935 0.474706
vt 0.580988 0.444446
vt 0.660060 0.444446
vt 0.733114 0.474706
vt 0.789026 0.530618
vt 0.819286 0.603671
vt 0.819286 0.682743
vt 0.789026 0.755797
vt 0.733114 0.811709
vt 0.660061 0.841969
vt 0.580988 0.841969
vt 0.806245 0.061601
vt 0.776670 0.061601
vt 0.776670 -0.000000
vt 0.806245 -0.000000
vt 0.510894 0.990655
vt 0.481318 0.990655
vt 0.453994 0.979337
vt 0.433081 0.958424
vt 0.421763 0.931100
vt 0.421763 0.901524
vt 0.433081 0.874200
vt 0.453994 0.853287
vt 0.481318 0.841969
vt 0.510894 0.841969
vt 0.538218 0.853287
vt 0.559131 0.874200
vt 0.570449 0.901524
vt 0.570449 0.931100
vt 0.559131 0.958424
vt 0.538218 0.979337
vt 0.599216 0.061601
vt 0.569641 0.061601
vt 0.569641 0.000000
vt 0.599216 -0.000000
vt 0.835821 0.061601
vt 0.835821 -0.000000
vt 0.628792 0.061601
vt 0.628792 -0.000000
vt 0.865396 0.061601
vt 0.865396 -0.000000
vt 0.658367 0.061601
vt 0.658367 -0.000000
vt 0.894972 0.061601
vt 0.894972 -0.000000
vt 0.687943 0.061601
vt 0.687943 -0.000000
vt 0.451339 0.061601
vt 0.421763 0.061601
vt 0.421763 0.000000
vt 0.451339 0.000000
vt 0.717518 0.061601
vt 0.717518 -0.000000
vt 0.480914 0.061601
vt 0.480914 0.000000
vt 0.747094 0.061601
vt 0.747094 -0.000000
vt 0.510490 0.061601
vt 0.510490 0.000000
vt 0.540065 0.061601
vt 0.540065 0.000000
vt 0.287072 0.768165
vt 0.243220 0.822731
vt 0.230282 0.810412
vt 0.271798 0.757919
vt 0.216935 0.797801
vt 0.256681 0.747848
vt 0.202912 0.784620
vt 0.241061 0.737496
vt 0.321695 0.706385
vt 0.304865 0.698792
vt 0.287707 0.691275
vt 0.269905 0.683445
vt 0.346050 0.637927
vt 0.327467 0.633156
vt 0.308885 0.628518
vt 0.289511 0.623655
vt 0.358935 0.564576
vt 0.339573 0.562973
vt 0.320053 0.561332
vt 0.299361 0.559624
vt 0.359547 0.489032
vt 0.339910 0.490704
vt 0.320124 0.492364
vt 0.299933 0.494105
vt 0.347305 0.413401
vt 0.327891 0.418459
vt 0.308341 0.423578
vt 0.288005 0.428850
vt 0.322031 0.339294
vt 0.303328 0.347677
vt 0.284471 0.356169
vt 0.264809 0.364978
vt 0.284058 0.268871
vt 0.266742 0.280234
vt 0.248992 0.291986
vt 0.230422 0.304355
vt 0.233984 0.204970
vt 0.218384 0.219527
vt 0.203030 0.233959
vt 0.187232 0.248887
vt 0.173270 0.149477
vt 0.160219 0.166529
vt 0.147212 0.183997
vt 0.133720 0.202112
vt 0.101743 0.103465
vt 0.091370 0.123396
vt 0.081357 0.143525
vt 0.071084 0.164514
vt 0.018212 0.067410
vt 0.009982 0.090167
vt 0.004138 0.114181
vt 0.000000 0.138650
vt 0.072438 0.930093
vt 0.004361 0.946357
vt 0.001172 0.927864
vt 0.066986 0.913533
vt 0.000004 0.909172
vt 0.061771 0.896924
vt 0.000000 0.890278
vt 0.056641 0.879853
vt 0.134166 0.904354
vt 0.126044 0.888977
vt 0.117890 0.873481
vt 0.109499 0.857344
vt 0.191507 0.868445
vt 0.180786 0.854370
vt 0.169951 0.840180
vt 0.158699 0.825371
vt 0.283843 0.862427
vt 0.334528 0.801093
vt 0.375002 0.731328
vt 0.224395 0.913527
vt 0.404037 0.653947
vt 0.419949 0.570879
vt 0.421763 0.485019
vt 0.409088 0.398727
vt 0.381666 0.314007
vt 0.339574 0.233436
vt 0.283651 0.160093
vt 0.215643 0.096075
vt 0.136589 0.042694
vt 0.049478 0.000000
vt 0.018890 1.000000
vt 0.089263 0.980940
vt 0.158677 0.953100
vt 0.810766 0.157886
vt 0.837159 0.216614
vt 0.816515 0.222114
vt 0.793438 0.168969
vt 0.797194 0.227464
vt 0.776402 0.180091
vt 0.777768 0.232687
vt 0.759275 0.191085
vt 0.768467 0.109201
vt 0.754735 0.125352
vt 0.741842 0.141191
vt 0.728810 0.156927
vt 0.712224 0.075072
vt 0.704197 0.095492
vt 0.696705 0.114596
vt 0.689221 0.133682
vt 0.647643 0.061601
vt 0.646617 0.082944
vt 0.645416 0.103432
vt 0.644216 0.123938
vt 0.582696 0.067984
vt 0.587787 0.088284
vt 0.593031 0.108310
vt 0.598101 0.128386
vt 0.521793 0.093106
vt 0.533390 0.111750
vt 0.544427 0.129149
vt 0.555324 0.146725
vt 0.472076 0.136673
vt 0.488203 0.150348
vt 0.504246 0.163680
vt 0.520145 0.177112
vt 0.436989 0.193072
vt 0.457489 0.201527
vt 0.476809 0.209265
vt 0.496146 0.217163
vt 0.421763 0.258175
vt 0.443067 0.259970
vt 0.464170 0.261528
vt 0.485282 0.263216
vt 0.425845 0.325104
vt 0.447437 0.320558
vt 0.468208 0.315667
vt 0.489053 0.310826
vt 0.450051 0.389106
vt 0.469930 0.377958
vt 0.488779 0.367119
vt 0.507582 0.355751
vt 0.492190 0.444446
vt 0.509752 0.429586
vt 0.525863 0.412556
vt 0.540881 0.394242
vt 0.799006 0.398424
vt 0.753655 0.444446
vt 0.739119 0.428282
vt 0.782590 0.385954
vt 0.726520 0.410637
vt 0.766462 0.373613
vt 0.715258 0.392129
vt 0.750554 0.360807
vt 0.830667 0.342959
vt 0.810760 0.335474
vt 0.792010 0.328561
vt 0.773290 0.321360
vt 0.843249 0.280347
vt 0.822868 0.279303
vt 0.802752 0.278448
vt 0.782696 0.277409
vt 0.733388 0.244891
vt 0.719902 0.216746
vt 0.699355 0.193059
vt 0.737517 0.275334
vt 0.672540 0.176862
vt 0.641623 0.170901
vt 0.610045 0.174730
vt 0.580513 0.186782
vt 0.556245 0.207226
vt 0.540504 0.234987
vt 0.533937 0.266704
vt 0.536131 0.299177
vt 0.548573 0.329288
vt 0.571031 0.353057
vt 0.692050 0.351093
vt 0.715181 0.331168
vt 0.730847 0.305057
s 1
usemtl SpikeTrap
f 1/1/1 2/2/1 4/3/1 6/4/1 7/5/1 8/6/1 10/7/1 12/8/1 13/9/1 14/10/1 16/11/1 18/12/1 19/13/1 20/14/1 21/15/1 23/16/1
f 34/17/2 33/18/3 49/19/3 50/20/2
f 41/21/4 42/22/4 56/23/4 55/24/4 54/25/4 53/26/4 52/27/4 51/28/4 50/29/4 49/30/4 48/31/4 47/32/4 46/33/4 45/34/4 44/35/4 43/36/4
f 27/37/5 25/38/6 41/39/6 43/40/5
f 35/41/7 34/17/2 50/20/2 51/42/7
f 28/43/8 27/37/5 43/40/5 44/44/8
f 36/45/9 35/41/7 51/42/7 52/46/9
f 29/47/10 28/43/8 44/44/8 45/48/10
f 37/49/11 36/45/9 52/46/9 53/50/11
f 30/51/12 29/47/10 45/48/10 46/52/12
f 38/53/13 37/54/11 53/55/11 54/56/13
f 31/57/14 30/51/12 46/52/12 47/58/14
f 39/59/15 38/53/13 54/56/13 55/60/15
f 32/61/16 31/57/14 47/58/14 48/62/16
f 40/63/17 39/59/15 55/60/15 56/64/17
f 33/18/3 32/61/16 48/62/16 49/19/3
f 25/38/6 26/65/18 42/66/18 41/39/6
f 26/65/18 40/63/17 56/64/17 42/66/18
f 57/67/19 60/68/20 62/69/21 59/70/22
f 59/70/22 62/69/21 63/71/23 58/72/24
f 58/72/24 63/71/23 61/73/25 3/74/26
f 64/75/27 57/67/19 59/70/22 66/76/28
f 66/76/28 59/70/22 58/72/24 65/77/29
f 65/77/29 58/72/24 3/74/26 5/78/30
f 68/79/31 64/75/27 66/76/28 70/80/32
f 70/80/32 66/76/28 65/77/29 69/81/33
f 69/81/33 65/77/29 5/78/30 67/82/34
f 72/83/35 68/79/31 70/80/32 74/84/36
f 74/84/36 70/80/32 69/81/33 73/85/37
f 73/85/37 69/81/33 67/82/34 71/86/38
f 75/87/39 72/83/35 74/84/36 77/88/40
f 77/88/40 74/84/36 73/85/37 76/89/41
f 76/89/41 73/85/37 71/86/38 9/90/42
f 78/91/43 75/87/39 77/88/40 80/92/44
f 80/92/44 77/88/40 76/89/41 79/93/45
f 79/93/45 76/89/41 9/90/42 11/94/46
f 82/95/47 78/91/43 80/92/44 84/96/48
f 84/96/48 80/92/44 79/93/45 83/97/49
f 83/97/49 79/93/45 11/94/46 81/98/50
f 86/99/51 82/95/47 84/96/48 88/100/52
f 88/100/52 84/96/48 83/97/49 87/101/53
f 87/101/53 83/97/49 81/98/50 85/102/54
f 89/103/55 86/99/51 88/100/52 91/104/56
f 91/104/56 88/100/52 87/101/53 90/105/57
f 90/105/57 87/101/53 85/102/54 15/106/58
f 92/107/59 89/103/55 91/104/56 94/108/60
f 94/108/60 91/104/56 90/105/57 93/109/61
f 93/109/61 90/105/57 15/106/58 17/110/62
f 96/111/63 92/107/59 94/108/60 98/112/64
f 98/112/64 94/108/60 93/109/61 97/113/65
f 97/113/65 93/109/61 17/110/62 95/114/66
f 100/115/67 96/111/63 98/112/64 102/116/68
f 102/116/68 98/112/64 97/113/65 101/117/69
f 101/117/69 97/113/65 95/114/66 99/118/70
f 104/119/71 100/120/67 102/121/68 106/122/72
f 106/122/72 102/121/68 101/123/69 105/124/73
f 105/124/73 101/123/69 99/125/70 103/126/74
f 107/127/75 104/119/71 106/122/72 109/128/76
f 109/128/76 106/122/72 105/124/73 108/129/77
f 108/129/77 105/124/73 103/126/74 22/130/78
f 110/131/79 107/127/75 109/128/76 112/132/80
f 112/132/80 109/128/76 108/129/77 111/133/81
f 111/133/81 108/129/77 22/130/78 24/134/82
f 60/68/20 110/131/79 112/132/80 62/69/21
f 62/69/21 112/132/80 111/133/81 63/71/23
f 63/71/23 111/133/81 24/134/82 61/73/25
f 1/135/3 60/68/20 57/67/19 2/136/2
f 2/136/2 57/67/19 64/75/27 4/137/7
f 23/138/16 110/131/79 60/68/20 1/135/3
f 4/137/7 64/75/27 68/79/31 6/139/9
f 6/139/9 68/79/31 72/83/35 7/140/11
f 7/140/11 72/83/35 75/87/39 8/141/13
f 8/141/13 75/87/39 78/91/43 10/142/15
f 10/142/15 78/91/43 82/95/47 12/143/17
f 12/143/17 82/95/47 86/99/51 13/144/18
f 13/144/18 86/99/51 89/103/55 14/145/6
f 14/145/6 89/103/55 92/107/59 16/146/5
f 16/146/5 92/107/59 96/111/63 18/147/8
f 18/147/8 96/111/63 100/115/67 19/148/10
f 19/149/10 100/120/67 104/119/71 20/150/12
f 20/150/12 104/119/71 107/127/75 21/151/14
f 21/151/14 107/127/75 110/131/79 23/138/16
f 3/152/83 61/153/84 117/154/21 115/155/22
f 115/155/22 117/154/21 118/156/23 114/157/24
f 114/157/24 118/156/23 116/158/85 113/159/86
f 5/160/87 3/152/83 115/155/22 121/161/28
f 121/161/28 115/155/22 114/157/24 120/162/29
f 120/162/29 114/157/24 113/159/86 119/163/88
f 67/164/89 5/160/87 121/161/28 124/165/32
f 124/165/32 121/161/28 120/162/29 123/166/33
f 123/166/33 120/162/29 119/163/88 122/167/90
f 71/168/91 67/164/89 124/165/32 127/169/36
f 127/169/36 124/165/32 123/166/33 126/170/37
f 126/170/37 123/166/33 122/167/90 125/171/92
f 9/172/93 71/168/91 127/169/36 130/173/40
f 130/173/40 127/169/36 126/170/37 129/174/41
f 129/174/41 126/170/37 125/171/92 128/175/94
f 11/176/95 9/172/93 130/173/40 133/177/44
f 133/177/44 130/173/40 129/174/41 132/178/45
f 132/178/45 129/174/41 128/175/94 131/179/96
f 81/180/97 11/176/95 133/177/44 136/181/48
f 136/181/48 133/177/44 132/178/45 135/182/49
f 135/182/49 132/178/45 131/179/96 134/183/98
f 85/184/99 81/180/97 136/181/48 139/185/52
f 139/185/52 136/181/48 135/182/49 138/186/53
f 138/186/53 135/182/49 134/183/98 137/187/100
f 15/188/101 85/184/99 139/185/52 142/189/56
f 142/189/56 139/185/52 138/186/53 141/190/57
f 141/190/57 138/186/53 137/187/100 140/191/102
f 17/192/103 15/188/101 142/189/56 145/193/60
f 145/193/60 142/189/56 141/190/57 144/194/61
f 144/194/61 141/190/57 140/191/102 143/195/104
f 95/196/105 17/192/103 145/193/60 148/197/64
f 148/197/64 145/193/60 144/194/61 147/198/65
f 147/198/65 144/194/61 143/195/104 146/199/106
f 99/200/107 95/196/105 148/197/64 151/201/68
f 151/201/68 148/197/64 147/198/65 150/202/69
f 150/202/69 147/198/65 146/199/106 149/203/108
f 103/204/109 99/205/107 151/206/68 154/207/72
f 154/207/72 151/206/68 150/208/69 153/209/73
f 153/209/73 150/208/69 149/210/108 152/211/110
f 22/212/111 103/204/109 154/207/72 157/213/76
f 157/213/76 154/207/72 153/209/73 156/214/77
f 156/214/77 153/209/73 152/211/110 155/215/112
f 24/216/113 22/212/111 157/213/76 160/217/80
f 160/217/80 157/213/76 156/214/77 159/218/81
f 159/218/81 156/214/77 155/215/112 158/219/114
f 61/153/84 24/216/113 160/217/80 117/154/21
f 117/154/21 160/217/80 159/218/81 118/156/23
f 118/156/23 159/218/81 158/219/114 116/158/85
f 26/220/4 25/221/4 113/159/86 116/158/85
f 25/221/4 27/222/4 119/163/88 113/159/86
f 40/223/4 26/220/4 116/158/85 158/219/114
f 27/222/4 28/224/4 122/167/90 119/163/88
f 28/224/4 29/225/4 125/171/92 122/167/90
f 29/225/4 30/226/4 128/175/94 125/171/92
f 30/226/4 31/227/4 131/179/96 128/175/94
f 31/227/4 32/228/4 134/183/98 131/179/96
f 32/228/4 33/229/4 137/187/100 134/183/98
f 33/229/4 34/230/4 140/191/102 137/187/100
f 34/230/4 35/231/4 143/195/104 140/191/102
f 35/231/4 36/232/4 146/199/106 143/195/104
f 36/232/4 37/233/4 149/203/108 146/199/106
f 37/234/4 38/235/4 152/211/110 149/210/108
f 38/235/4 39/236/4 155/215/112 152/211/110
f 39/236/4 40/223/4 158/219/114 155/215/112
