# Blender 5.0.0
# www.blender.org
mtllib Gate2.mtl
o Gate2
v -6.008425 0.007397 -0.190768
v -6.008425 0.007397 0.190767
v 6.008425 0.007397 -0.190768
v 6.008425 0.007397 0.190767
v -6.008425 12.024247 -0.190767
v -6.008425 12.024247 0.190768
v 6.008425 12.024247 -0.190767
v 6.008425 12.024247 0.190768
v -6.008425 6.015822 -0.190767
v -6.008425 6.015822 0.190767
v 0.000000 0.007397 -0.190768
v 0.000000 0.007397 0.190767
v 6.008425 6.015822 -0.190767
v 6.008425 6.015822 0.190767
v 0.000000 12.024247 -0.190767
v 0.000000 12.024247 0.190768
v 0.000000 6.015822 -0.190767
v 0.000000 6.015822 0.190767
v -6.008425 3.011610 -0.190768
v -6.008425 3.011610 0.190767
v 3.004212 0.007397 -0.190768
v 3.004212 0.007397 0.190767
v 6.008425 9.020035 -0.190767
v 6.008425 9.020035 0.190768
v -3.004212 12.024247 -0.190767
v -3.004212 12.024247 0.190768
v -6.008425 9.020035 -0.190767
v -6.008425 9.020035 0.190768
v -3.004212 0.007397 -0.190768
v -3.004212 0.007397 0.190767
v 6.008425 3.011610 -0.190768
v 6.008425 3.011610 0.190767
v 3.004212 12.024247 -0.190767
v 3.004212 12.024247 0.190768
v 0.000000 9.020035 -0.190767
v 0.000000 9.020035 0.190768
v 0.000000 3.011610 -0.190768
v 0.000000 3.011610 0.190767
v -3.004212 6.015822 -0.190767
v -3.004212 6.015822 0.190767
v 3.004212 6.015822 -0.190767
v 3.004212 6.015822 0.190767
v 3.004212 3.011610 -0.190768
v 3.004212 3.011610 0.190767
v -3.004212 3.011610 -0.190768
v -3.004212 3.011610 0.190767
v -3.004212 9.020035 -0.190767
v -3.004212 9.020035 0.190768
v 3.004212 9.020035 -0.190767
v 3.004212 9.020035 0.190768
v 3.194980 9.210802 0.000000
v 5.817657 9.210802 0.000000
v 6.199192 9.020035 0.000000
v 6.199192 12.215014 0.000000
v 5.817657 11.833480 0.000000
v 3.004212 12.215014 0.000000
v 3.194980 11.833480 0.000000
v -2.813445 9.210802 0.000000
v -0.190767 9.210802 0.000000
v -0.190767 11.833480 0.000000
v 0.000000 12.215014 0.000000
v -3.004212 12.215014 0.000000
v -2.813445 11.833480 0.000000
v -2.813445 3.202377 -0.000000
v -0.190767 3.202377 -0.000000
v -0.190767 5.825055 -0.000000
v -2.813445 5.825055 -0.000000
v 3.194980 3.202377 -0.000000
v 5.817657 3.202377 -0.000000
v 6.199192 3.011610 -0.000000
v 6.199192 6.015822 0.000000
v 5.817657 5.825055 -0.000000
v 3.194980 5.825055 -0.000000
v 0.190767 3.202377 -0.000000
v 2.813445 3.202377 -0.000000
v 2.813445 5.825055 -0.000000
v 0.190767 5.825055 -0.000000
v 0.190767 0.198165 -0.000000
v 0.000000 -0.183370 -0.000000
v 3.004212 -0.183370 -0.000000
v 2.813445 0.198165 -0.000000
v 2.813445 2.820842 -0.000000
v 0.190767 2.820842 -0.000000
v 3.194980 0.198165 -0.000000
v 6.199192 -0.183370 -0.000000
v 5.817657 0.198165 -0.000000
v 5.817657 2.820842 -0.000000
v 3.194980 2.820842 -0.000000
v -5.817657 3.202377 -0.000000
v -3.194980 3.202377 -0.000000
v -3.194980 5.825055 -0.000000
v -5.817657 5.825055 -0.000000
v -6.199192 6.015822 0.000000
v -6.199192 3.011610 -0.000000
v -5.817657 0.198165 -0.000000
v -6.199192 -0.183370 -0.000000
v -3.004212 -0.183370 -0.000000
v -3.194980 0.198165 -0.000000
v -3.194980 2.820842 -0.000000
v -5.817657 2.820843 -0.000000
v -2.813445 0.198165 -0.000000
v -0.190767 0.198165 -0.000000
v -0.190767 2.820842 -0.000000
v -2.813445 2.820842 -0.000000
v -5.817657 9.210802 0.000000
v -3.194980 9.210802 0.000000
v -3.194980 11.833480 0.000000
v -6.199192 12.215014 0.000000
v -5.817657 11.833480 0.000000
v -6.199192 9.020035 0.000000
v -5.817657 6.206590 0.000000
v -3.194980 6.206590 0.000000
v -3.194980 8.829268 0.000000
v -5.817657 8.829268 0.000000
v -2.813445 6.206590 0.000000
v -0.190767 6.206590 0.000000
v -0.190767 8.829268 0.000000
v -2.813445 8.829268 0.000000
v 0.190767 9.210802 0.000000
v 2.813445 9.210802 0.000000
v 2.813445 11.833480 0.000000
v 0.190767 11.833480 0.000000
v 0.190767 6.206590 0.000000
v 2.813445 6.206590 0.000000
v 2.813445 8.829268 0.000000
v 0.190767 8.829268 0.000000
v 3.194980 6.206590 0.000000
v 5.817657 6.206590 0.000000
v 5.817657 8.829268 0.000000
v 3.194980 8.829268 0.000000
vn -0.0000 0.7071 -0.7071
vn -0.0000 0.7071 0.7071
vn -0.7071 -0.0000 -0.7071
vn -0.7071 -0.0000 0.7071
vn 0.7071 -0.0000 -0.7071
vn 0.7071 -0.0000 0.7071
vn -0.0000 -0.7071 -0.7071
vn -0.0000 -0.7071 0.7071
vt 0.757693 0.757693
vt 0.969227 0.757693
vt 0.984614 0.742307
vt 0.742307 0.742307
vt 0.969227 0.969227
vt 0.984614 0.984614
vt 1.000000 1.000000
vt 1.000000 0.742307
vt 0.757693 0.969227
vt 0.742307 0.984614
vt 0.742307 1.000000
vt 0.273080 0.757693
vt 0.484614 0.757693
vt 0.500000 0.742307
vt 0.257693 0.742307
vt 0.484614 0.969227
vt 0.500000 0.984614
vt 0.273080 0.969227
vt 0.257693 0.984614
vt 0.257693 1.000000
vt 0.500000 1.000000
vt 0.273080 0.273080
vt 0.484614 0.273080
vt 0.500000 0.257693
vt 0.257693 0.257693
vt 0.484614 0.484614
vt 0.500000 0.500000
vt 0.273080 0.484614
vt 0.257693 0.500000
vt 0.757693 0.273080
vt 0.969227 0.273080
vt 0.984614 0.257693
vt 0.742307 0.257693
vt 0.969227 0.484614
vt 0.984614 0.500000
vt 1.000000 0.500000
vt 1.000000 0.257693
vt 0.757693 0.484614
vt 0.742307 0.500000
vt 0.515387 0.273080
vt 0.726920 0.273080
vt 0.726920 0.484614
vt 0.515387 0.484614
vt 0.515387 0.030773
vt 0.726920 0.030773
vt 0.742307 0.015386
vt 0.500000 0.015386
vt 0.500000 0.015386
vt 0.742307 0.015386
vt 0.742307 0.000000
vt 0.500000 0.000000
vt 0.726920 0.242307
vt 0.515387 0.242307
vt 0.757693 0.030773
vt 0.969227 0.030773
vt 0.984614 0.015386
vt 0.984614 0.015386
vt 1.000000 0.000000
vt 0.969227 0.242307
vt 0.757693 0.242307
vt 0.030773 0.273080
vt 0.242307 0.273080
vt 0.015386 0.257693
vt 0.015386 0.257693
vt 0.242307 0.484614
vt 0.030773 0.484614
vt 0.015386 0.500000
vt 0.000000 0.257693
vt 0.000000 0.500000
vt 0.030773 0.030773
vt 0.242307 0.030773
vt 0.257693 0.015386
vt 0.015386 0.015386
vt 0.015386 0.015386
vt 0.257693 0.015386
vt 0.257693 0.000000
vt 0.000000 0.000000
vt 0.242307 0.242307
vt 0.030773 0.242307
vt 0.273080 0.030773
vt 0.484614 0.030773
vt 0.484614 0.242307
vt 0.273080 0.242307
vt 0.030773 0.757693
vt 0.242307 0.757693
vt 0.015386 0.742307
vt 0.242307 0.969227
vt 0.030773 0.969227
vt 0.015386 0.984614
vt 0.000000 1.000000
vt 0.000000 0.742307
vt 0.030773 0.515386
vt 0.242307 0.515386
vt 0.242307 0.726920
vt 0.030773 0.726920
vt 0.273080 0.515386
vt 0.484614 0.515386
vt 0.484614 0.726920
vt 0.273080 0.726920
vt 0.515387 0.757693
vt 0.726920 0.757693
vt 0.726920 0.969227
vt 0.515387 0.969227
vt 0.515387 0.515386
vt 0.726920 0.515386
vt 0.726920 0.726920
vt 0.515387 0.726920
vt 0.757693 0.515386
vt 0.969227 0.515386
vt 0.969227 0.726920
vt 0.757693 0.726920
s 0
usemtl Gate2
f 51/1/1 52/2/1 23/3/1 49/4/1
f 52/2/2 51/1/2 50/4/2 24/3/2
f 52/2/3 55/5/3 7/6/3 23/3/3
f 55/5/4 52/2/4 24/3/4 8/6/4
f 54/7/5 53/8/5 23/3/5 7/6/5
f 53/8/6 54/7/6 8/6/6 24/3/6
f 55/5/7 57/9/7 33/10/7 7/6/7
f 57/9/8 55/5/8 8/6/8 34/10/8
f 56/11/1 54/7/1 7/6/1 33/10/1
f 54/7/2 56/11/2 34/10/2 8/6/2
f 57/9/5 51/1/5 49/4/5 33/10/5
f 51/1/6 57/9/6 34/10/6 50/4/6
f 58/12/1 59/13/1 35/14/1 47/15/1
f 59/13/2 58/12/2 48/15/2 36/14/2
f 59/13/3 60/16/3 15/17/3 35/14/3
f 60/16/4 59/13/4 36/14/4 16/17/4
f 60/16/7 63/18/7 25/19/7 15/17/7
f 63/18/8 60/16/8 16/17/8 26/19/8
f 62/20/1 61/21/1 15/17/1 25/19/1
f 61/21/2 62/20/2 26/19/2 16/17/2
f 63/18/5 58/12/5 47/15/5 25/19/5
f 58/12/6 63/18/6 26/19/6 48/15/6
f 64/22/1 65/23/1 37/24/1 45/25/1
f 65/23/2 64/22/2 46/25/2 38/24/2
f 65/23/3 66/26/3 17/27/3 37/24/3
f 66/26/4 65/23/4 38/24/4 18/27/4
f 66/26/7 67/28/7 39/29/7 17/27/7
f 67/28/8 66/26/8 18/27/8 40/29/8
f 67/28/5 64/22/5 45/25/5 39/29/5
f 64/22/6 67/28/6 40/29/6 46/25/6
f 68/30/1 69/31/1 31/32/1 43/33/1
f 69/31/2 68/30/2 44/33/2 32/32/2
f 69/31/3 72/34/3 13/35/3 31/32/3
f 72/34/4 69/31/4 32/32/4 14/35/4
f 71/36/5 70/37/5 31/32/5 13/35/5
f 70/37/6 71/36/6 14/35/6 32/32/6
f 72/34/7 73/38/7 41/39/7 13/35/7
f 73/38/8 72/34/8 14/35/8 42/39/8
f 73/38/5 68/30/5 43/33/5 41/39/5
f 68/30/6 73/38/6 42/39/6 44/33/6
f 74/40/1 75/41/1 43/33/1 37/24/1
f 75/41/2 74/40/2 38/24/2 44/33/2
f 75/41/3 76/42/3 41/39/3 43/33/3
f 76/42/4 75/41/4 44/33/4 42/39/4
f 76/42/7 77/43/7 17/27/7 41/39/7
f 77/43/8 76/42/8 42/39/8 18/27/8
f 77/43/5 74/40/5 37/24/5 17/27/5
f 74/40/6 77/43/6 18/27/6 38/24/6
f 78/44/1 81/45/1 21/46/1 11/47/1
f 81/45/2 78/44/2 12/48/2 22/49/2
f 80/50/7 79/51/7 11/47/7 21/46/7
f 79/51/8 80/50/8 22/49/8 12/48/8
f 81/45/3 82/52/3 43/33/3 21/46/3
f 82/52/4 81/45/4 22/49/4 44/33/4
f 82/52/7 83/53/7 37/24/7 43/33/7
f 83/53/8 82/52/8 44/33/8 38/24/8
f 83/53/5 78/44/5 11/47/5 37/24/5
f 78/44/6 83/53/6 38/24/6 12/48/6
f 84/54/1 86/55/1 3/56/1 21/46/1
f 86/55/2 84/54/2 22/49/2 4/57/2
f 85/58/7 80/50/7 21/46/7 3/56/7
f 80/50/8 85/58/8 4/57/8 22/49/8
f 86/55/3 87/59/3 31/32/3 3/56/3
f 87/59/4 86/55/4 4/57/4 32/32/4
f 70/37/5 85/58/5 3/56/5 31/32/5
f 85/58/6 70/37/6 32/32/6 4/57/6
f 87/59/7 88/60/7 43/33/7 31/32/7
f 88/60/8 87/59/8 32/32/8 44/33/8
f 88/60/5 84/54/5 21/46/5 43/33/5
f 84/54/6 88/60/6 44/33/6 22/49/6
f 89/61/1 90/62/1 45/25/1 19/63/1
f 90/62/2 89/61/2 20/64/2 46/25/2
f 90/62/3 91/65/3 39/29/3 45/25/3
f 91/65/4 90/62/4 46/25/4 40/29/4
f 91/65/7 92/66/7 9/67/7 39/29/7
f 92/66/8 91/65/8 40/29/8 10/67/8
f 92/66/5 89/61/5 19/63/5 9/67/5
f 89/61/6 92/66/6 10/67/6 20/64/6
f 94/68/3 93/69/3 9/67/3 19/63/3
f 93/69/4 94/68/4 20/64/4 10/67/4
f 95/70/1 98/71/1 29/72/1 1/73/1
f 98/71/2 95/70/2 2/74/2 30/75/2
f 97/76/7 96/77/7 1/73/7 29/72/7
f 96/77/8 97/76/8 30/75/8 2/74/8
f 98/71/3 99/78/3 45/25/3 29/72/3
f 99/78/4 98/71/4 30/75/4 46/25/4
f 99/78/7 100/79/7 19/63/7 45/25/7
f 100/79/8 99/78/8 46/25/8 20/64/8
f 100/79/5 95/70/5 1/73/5 19/63/5
f 95/70/6 100/79/6 20/64/6 2/74/6
f 96/77/3 94/68/3 19/63/3 1/73/3
f 94/68/4 96/77/4 2/74/4 20/64/4
f 101/80/1 102/81/1 11/47/1 29/72/1
f 102/81/2 101/80/2 30/75/2 12/48/2
f 79/51/7 97/76/7 29/72/7 11/47/7
f 97/76/8 79/51/8 12/48/8 30/75/8
f 102/81/3 103/82/3 37/24/3 11/47/3
f 103/82/4 102/81/4 12/48/4 38/24/4
f 103/82/7 104/83/7 45/25/7 37/24/7
f 104/83/8 103/82/8 38/24/8 46/25/8
f 104/83/5 101/80/5 29/72/5 45/25/5
f 101/80/6 104/83/6 46/25/6 30/75/6
f 105/84/1 106/85/1 47/15/1 27/86/1
f 106/85/2 105/84/2 28/86/2 48/15/2
f 106/85/3 107/87/3 25/19/3 47/15/3
f 107/87/4 106/85/4 48/15/4 26/19/4
f 107/87/7 109/88/7 5/89/7 25/19/7
f 109/88/8 107/87/8 26/19/8 6/89/8
f 108/90/1 62/20/1 25/19/1 5/89/1
f 62/20/2 108/90/2 6/89/2 26/19/2
f 109/88/5 105/84/5 27/86/5 5/89/5
f 105/84/6 109/88/6 6/89/6 28/86/6
f 110/91/3 108/90/3 5/89/3 27/86/3
f 108/90/4 110/91/4 28/86/4 6/89/4
f 111/92/1 112/93/1 39/29/1 9/67/1
f 112/93/2 111/92/2 10/67/2 40/29/2
f 112/93/3 113/94/3 47/15/3 39/29/3
f 113/94/4 112/93/4 40/29/4 48/15/4
f 113/94/7 114/95/7 27/86/7 47/15/7
f 114/95/8 113/94/8 48/15/8 28/86/8
f 114/95/5 111/92/5 9/67/5 27/86/5
f 111/92/6 114/95/6 28/86/6 10/67/6
f 93/69/3 110/91/3 27/86/3 9/67/3
f 110/91/4 93/69/4 10/67/4 28/86/4
f 115/96/1 116/97/1 17/27/1 39/29/1
f 116/97/2 115/96/2 40/29/2 18/27/2
f 116/97/3 117/98/3 35/14/3 17/27/3
f 117/98/4 116/97/4 18/27/4 36/14/4
f 117/98/7 118/99/7 47/15/7 35/14/7
f 118/99/8 117/98/8 36/14/8 48/15/8
f 118/99/5 115/96/5 39/29/5 47/15/5
f 115/96/6 118/99/6 48/15/6 40/29/6
f 119/100/1 120/101/1 49/4/1 35/14/1
f 120/101/2 119/100/2 36/14/2 50/4/2
f 120/101/3 121/102/3 33/10/3 49/4/3
f 121/102/4 120/101/4 50/4/4 34/10/4
f 121/102/7 122/103/7 15/17/7 33/10/7
f 122/103/8 121/102/8 34/10/8 16/17/8
f 61/21/1 56/11/1 33/10/1 15/17/1
f 56/11/2 61/21/2 16/17/2 34/10/2
f 122/103/5 119/100/5 35/14/5 15/17/5
f 119/100/6 122/103/6 16/17/6 36/14/6
f 123/104/1 124/105/1 41/39/1 17/27/1
f 124/105/2 123/104/2 18/27/2 42/39/2
f 124/105/3 125/106/3 49/4/3 41/39/3
f 125/106/4 124/105/4 42/39/4 50/4/4
f 125/106/7 126/107/7 35/14/7 49/4/7
f 126/107/8 125/106/8 50/4/8 36/14/8
f 126/107/5 123/104/5 17/27/5 35/14/5
f 123/104/6 126/107/6 36/14/6 18/27/6
f 127/108/1 128/109/1 13/35/1 41/39/1
f 128/109/2 127/108/2 42/39/2 14/35/2
f 128/109/3 129/110/3 23/3/3 13/35/3
f 129/110/4 128/109/4 14/35/4 24/3/4
f 53/8/5 71/36/5 13/35/5 23/3/5
f 71/36/6 53/8/6 24/3/6 14/35/6
f 129/110/7 130/111/7 49/4/7 23/3/7
f 130/111/8 129/110/8 24/3/8 50/4/8
f 130/111/5 127/108/5 41/39/5 49/4/5
f 127/108/6 130/111/6 50/4/6 42/39/6
