# Blender 5.0.0
# www.blender.org
mtllib ButtonBack.mtl
o ButtonBack
v 0.200000 0.000003 1.000011
v 0.200000 2.099990 1.000011
v 0.200000 0.000003 -0.999616
v 0.200000 2.099990 -0.999616
v -0.148588 0.107472 -0.884985
v -0.148588 0.107472 0.884985
v -0.148588 1.938090 0.884985
v -0.148588 1.938090 -0.884985
v -0.199999 0.062078 0.928875
v -0.199999 1.983484 0.928875
v -0.199999 1.983484 -0.928875
v -0.199999 0.062078 -0.928875
v -0.139980 0.000003 1.000011
v -0.199999 0.061015 0.929902
v -0.139980 2.099990 1.000011
v -0.199999 1.984547 0.929902
v -0.199999 0.061015 -0.929902
v -0.139980 0.000003 -0.999616
v -0.139980 2.099990 -0.999616
v -0.199999 1.984547 -0.929902
vn 1.0000 -0.0000 -0.0000
vn -1.0000 -0.0000 -0.0000
vn -0.6619 0.7496 -0.0000
vn -0.6493 -0.0000 -0.7605
vn -0.6619 -0.7496 -0.0000
vn -0.6493 -0.0000 0.7605
vn -0.7129 -0.7013 -0.0000
vn -0.7597 -0.0000 0.6503
vn -0.8873 0.4613 -0.0000
vn -0.7578 -0.0000 -0.6524
vn -0.0000 -1.0000 -0.0000
vn -0.0000 -0.0000 1.0000
vn -0.0000 1.0000 -0.0000
vn -0.0000 -0.0000 -1.0000
vt 0.011958 0.488042
vt 0.011958 0.011958
vt 0.472269 0.011958
vt 0.472269 0.488042
vt 0.011958 0.938017
vt 0.011958 0.511958
vt 0.423902 0.511958
vt 0.423902 0.938017
vt 0.913016 0.944332
vt 0.913016 0.511958
vt 0.924981 0.522173
vt 0.924981 0.934117
vt 0.841254 0.959147
vt 0.841254 0.511958
vt 0.853219 0.522523
vt 0.853219 0.948582
vt 0.960863 0.511958
vt 0.960863 0.944332
vt 0.948897 0.934117
vt 0.948897 0.522173
vt 0.889100 0.511958
vt 0.889100 0.959147
vt 0.877135 0.948582
vt 0.877135 0.522523
vt 0.956496 0.488042
vt 0.496185 0.488042
vt 0.509915 0.473842
vt 0.942767 0.473842
vt 0.515277 0.988042
vt 0.515277 0.511958
vt 0.529245 0.526158
vt 0.529245 0.973842
vt 0.496185 0.011958
vt 0.956496 0.011958
vt 0.942767 0.026158
vt 0.509915 0.026158
vt 0.567130 0.511958
vt 0.567130 0.988042
vt 0.553161 0.973842
vt 0.553161 0.526158
vt 0.510154 0.473595
vt 0.942528 0.473595
vt 0.725963 0.972269
vt 0.658504 0.972269
vt 0.658504 0.511958
vt 0.725963 0.511958
vt 0.510154 0.026405
vt 0.447818 0.988042
vt 0.447818 0.511958
vt 0.942528 0.026405
vt 0.817338 0.972269
vt 0.749879 0.972269
vt 0.749879 0.511958
vt 0.817338 0.511958
vt 0.634589 0.511958
vt 0.634589 0.988042
s 0
usemtl ButtonBack
f 3/1/1 4/2/1 2/3/1 1/4/1
f 6/5/2 7/6/2 8/7/2 5/8/2
f 12/9/3 9/10/3 6/11/3 5/12/3
f 9/13/4 10/14/4 7/15/4 6/16/4
f 10/17/5 11/18/5 8/19/5 7/20/5
f 11/21/6 12/22/6 5/23/6 8/24/6
f 18/25/7 13/26/7 14/27/7 17/28/7
f 13/29/8 15/30/8 16/31/8 14/32/8
f 15/33/9 19/34/9 20/35/9 16/36/9
f 19/37/10 18/38/10 17/39/10 20/40/10
f 17/28/2 14/27/2 9/41/2 12/42/2
f 18/43/11 3/44/11 1/45/11 13/46/11
f 14/27/2 16/36/2 10/47/2 9/41/2
f 1/48/12 2/49/12 15/30/12 13/29/12
f 16/36/2 20/35/2 11/50/2 10/47/2
f 4/51/13 19/52/13 15/53/13 2/54/13
f 18/38/14 19/37/14 4/55/14 3/56/14
f 20/35/2 17/28/2 12/42/2 11/50/2
