# Blender 5.0.0
# www.blender.org
mtllib BigHall_StoneSlab.mtl
o BigHall_StoneSlab
v -0.162256 13.688654 -2.478394
v 0.162256 13.688654 -2.478394
v -0.162256 0.901879 -2.478394
v 0.162256 0.901879 -2.478394
v -0.162256 14.152417 -2.478394
v 0.162256 14.152417 -2.478394
v 0.162256 13.688654 -0.012161
v -0.162256 13.688654 -0.012161
v -0.162256 0.901879 -0.067648
v 0.162256 0.901879 -0.067648
v 0.162256 14.152417 -0.068354
v -0.162256 14.152417 -0.068354
v 0.162256 13.325650 1.220956
v 0.162256 0.901879 1.137725
v 0.162256 13.789413 1.136666
v -0.162256 13.325650 1.220956
v -0.162256 0.901879 1.137725
v -0.162256 13.789413 1.136666
v 0.000000 0.901879 2.493507
v 0.000000 0.901879 -2.478394
v 0.000000 13.688654 -2.478394
v 0.000000 0.000608 2.604481
v 0.000000 14.860939 -2.478394
v 0.000000 0.000608 -2.478394
v -0.162256 4.965105 -2.478394
v -0.162256 4.086639 -2.478394
v -0.162256 4.525872 -2.478394
v 0.162256 4.086639 -2.478394
v 0.162256 4.965105 -2.478394
v 0.162256 4.525872 -2.478394
v -0.162256 4.965182 -0.050016
v -0.162256 4.086561 -0.053828
v -0.162256 4.525872 -0.051922
v 0.162256 4.086561 -0.053828
v 0.162256 4.965182 -0.050015
v 0.162256 4.525872 -0.051922
v -0.162256 4.862352 1.164258
v -0.162256 3.983629 1.158371
v -0.162256 4.422991 1.161314
v 0.162256 4.862352 1.164258
v 0.162256 3.983629 1.158371
v 0.162256 4.422991 1.161314
v 0.000000 13.155324 2.341686
v 0.000000 14.152417 -2.478394
v 0.000000 14.833540 -0.159334
v 0.000000 0.000608 -0.012161
v 0.000000 14.456837 1.000196
v 0.000000 0.000608 1.220956
v 0.000000 4.965105 -2.478394
v 0.000000 4.525872 -2.478394
v 0.000000 4.086639 -2.478394
v 0.000000 4.613071 2.529181
v 0.000000 3.734747 2.520738
v -0.162256 0.249316 2.230464
v -0.142309 0.073453 2.388579
v -0.162256 13.198010 2.103832
v 0.000000 13.355840 2.252471
v 0.000000 13.680111 2.009260
v -0.142553 13.157710 2.189217
v -0.133473 13.268367 2.138467
v 0.000000 13.537159 2.142820
v -0.142445 13.321042 2.071841
v -0.094151 0.000608 -2.478394
v -0.162256 0.249316 -2.478394
v -0.142309 0.073453 -2.478394
v -0.162256 14.338481 -2.478394
v -0.142309 14.534843 -2.478394
v 0.162256 0.249316 2.230464
v 0.142309 0.073453 2.388579
v 0.162256 13.198010 2.103832
v 0.133473 13.268369 2.138467
v 0.142553 13.157710 2.189217
v 0.142445 13.321043 2.071841
v 0.162256 0.249316 -2.478394
v 0.094151 0.000608 -2.478394
v 0.142309 0.073453 -2.478394
v 0.162256 14.338481 -2.478394
v 0.142309 14.534843 -2.478394
v 0.000000 12.198119 2.602091
v -0.000000 12.836652 2.456536
v -0.162256 12.590823 2.251996
v 0.000000 12.450507 2.561997
v -0.133473 12.480541 2.405290
v -0.142370 12.651642 2.355244
v -0.142174 12.378696 2.394095
v 0.162256 12.590823 2.251996
v 0.133473 12.480541 2.405289
v 0.142174 12.378696 2.394095
v 0.142370 12.651641 2.355244
v 0.162256 0.901879 2.149304
v 0.142309 0.901879 2.286338
v -0.162256 0.901879 2.149304
v -0.142309 0.901879 2.286338
v -0.162256 13.061838 2.134271
v -0.142309 12.954872 2.280935
v 0.162256 13.061838 2.134271
v 0.142309 12.954872 2.280936
v -0.094151 0.000608 -0.012161
v -0.162256 0.249316 -0.027472
v -0.142309 0.073453 -0.016645
v -0.162256 14.309235 -0.101050
v -0.142309 14.506905 -0.142263
v 0.162256 0.249316 -0.027473
v 0.094151 0.000608 -0.012161
v 0.142309 0.073453 -0.016645
v 0.162256 14.309234 -0.101050
v 0.142309 14.506906 -0.142264
v -0.162256 0.249316 1.197989
v -0.094151 0.000608 1.220956
v -0.142309 0.073453 1.214229
v 0.162256 13.917697 1.095245
v 0.142309 14.125856 1.028035
v -0.162256 13.917697 1.095246
v -0.142309 14.125856 1.028035
v 0.162256 0.249316 1.197988
v 0.094151 0.000608 1.220956
v 0.142309 0.073453 1.214229
v -0.162256 3.774988 2.174373
v -0.142309 3.746534 2.312935
v -0.162256 4.654409 2.177371
v -0.142309 4.625179 2.319783
v 0.000000 3.940409 2.693082
v 0.000000 4.288156 2.715545
v -0.162256 4.140589 2.474618
v -0.133473 4.113714 2.552091
v -0.129900 4.238870 2.539278
v -0.142414 4.006802 2.528702
v 0.162256 4.654409 2.177371
v 0.142309 4.625179 2.319783
v 0.162256 3.774988 2.174373
v 0.142309 3.746534 2.312935
v 0.162256 4.140589 2.474618
v 0.133473 4.113713 2.549478
v 0.142414 4.006802 2.528702
v 0.130479 4.238870 2.541369
v 0.000000 4.109374 2.739830
v 0.000000 10.780805 -2.478394
v 0.000000 7.872954 -2.478394
v -0.162256 10.504551 1.202057
v -0.162256 7.683451 1.183157
v -0.162256 7.872954 -2.478394
v -0.162256 10.780805 -2.478394
v 0.162256 10.780805 -2.478394
v 0.162256 7.872954 -2.478394
v -0.162256 7.873006 -0.037397
v -0.162256 10.780830 -0.024779
v 0.162256 10.780830 -0.024779
v 0.162256 7.873006 -0.037397
v 0.162256 7.683452 1.183157
v 0.162256 10.504552 1.202057
v 0.000000 7.141421 2.553484
v 0.000000 9.669770 2.577787
v -0.142219 9.794190 2.369325
v -0.142264 7.209684 2.344554
v -0.162256 9.945352 2.227121
v -0.162256 7.299880 2.202246
v 0.162256 7.299881 2.202246
v 0.162256 9.945352 2.227121
v 0.142219 9.794190 2.369325
v 0.142264 7.209684 2.344554
vn -0.0000 -0.0000 -1.0000
vn -1.0000 -0.0000 -0.0000
vn 1.0000 -0.0000 -0.0000
vn -0.9816 0.1093 0.1567
vn -0.9646 0.1122 0.2387
vn -0.9234 0.2244 0.3115
vn -0.9732 0.1683 0.1570
vn -0.7206 0.3309 0.6093
vn -0.7965 0.3862 0.4652
vn -0.7573 0.3624 0.5432
vn -0.7061 0.3085 0.6374
vn -0.8549 0.3977 0.3331
vn -0.8287 0.3977 0.3939
vn 0.8549 0.3977 0.3331
vn 0.7965 0.3862 0.4652
vn 0.7573 0.3624 0.5432
vn 0.8287 0.3977 0.3939
vn 0.7206 0.3309 0.6093
vn 0.7061 0.3085 0.6374
vn 0.9816 0.1093 0.1567
vn 0.9732 0.1683 0.1570
vn 0.9234 0.2244 0.3115
vn 0.9646 0.1122 0.2387
vn -0.8145 0.0153 0.5799
vn -0.7562 0.1124 0.6447
vn -0.7480 0.1287 0.6511
vn -0.7934 0.0463 0.6069
vn -0.6964 0.2010 0.6889
vn -0.7120 0.1861 0.6771
vn -0.9952 0.0151 0.0962
vn -0.9883 0.0052 0.1527
vn -0.9785 0.0284 0.2041
vn -0.9828 0.0357 0.1812
vn 0.6964 0.2010 0.6889
vn 0.7562 0.1124 0.6447
vn 0.7480 0.1287 0.6511
vn 0.7120 0.1861 0.6771
vn 0.8145 0.0153 0.5799
vn 0.7934 0.0463 0.6069
vn 0.9952 0.0151 0.0962
vn 0.9828 0.0357 0.1812
vn 0.9785 0.0284 0.2041
vn 0.9883 0.0052 0.1527
vn -0.9832 0.0138 0.1819
vn -0.9817 -0.0684 0.1778
vn -0.9329 0.0340 0.3584
vn -0.9644 0.0881 0.2494
vn 0.9828 0.0116 0.1841
vn 0.9649 0.0859 0.2482
vn 0.9296 0.0278 0.3674
vn 0.9814 -0.0707 0.1784
vn -0.7318 -0.6814 0.0123
vn -0.6242 -0.7809 0.0230
vn -0.7434 -0.6688 0.0111
vn -0.9936 -0.1127 -0.0000
vn -0.9964 -0.0579 0.0612
vn -0.9977 -0.0343 0.0584
vn -0.9984 -0.0564 -0.0000
vn -0.6934 0.2715 0.6674
vn -0.6882 0.2349 0.6865
vn -0.9837 0.0473 0.1737
vn -0.9942 0.0343 0.1017
vn -0.9141 0.4012 0.0591
vn -0.9166 0.3998 0.0048
vn -0.9128 0.4014 0.0750
vn -0.9946 0.1032 0.0137
vn -0.9949 0.1009 0.0012
vn -0.9987 0.0509 0.0006
vn -0.9983 0.0574 0.0119
vn 0.8342 -0.5515 -0.0000
vn 0.9936 -0.1127 -0.0000
vn 0.9984 -0.0564 -0.0000
vn 0.8966 0.4014 0.1870
vn 0.8830 0.4001 0.2454
vn 0.9918 0.1168 0.0518
vn 0.9958 0.0767 0.0502
vn 0.8240 0.0332 0.5657
vn 0.8221 0.0697 0.5651
vn 0.8240 0.0310 0.5657
vn 0.9896 0.0086 0.1438
vn 0.9964 -0.0579 0.0612
vn 0.9977 -0.0343 0.0584
vn 0.9976 0.0038 0.0690
vn 0.6934 0.2715 0.6674
vn 0.6882 0.2349 0.6865
vn 0.9837 0.0473 0.1737
vn 0.9942 0.0343 0.1017
vn -0.8221 0.0697 0.5651
vn -0.8240 0.0332 0.5657
vn -0.8240 0.0310 0.5657
vn -0.9896 0.0086 0.1438
vn -0.9976 0.0038 0.0690
vn -0.8342 -0.5515 -0.0000
vn -0.8966 0.4014 0.1870
vn -0.8830 0.4001 0.2454
vn -0.9918 0.1168 0.0518
vn -0.9958 0.0767 0.0502
vn 0.7318 -0.6814 0.0123
vn 0.7434 -0.6688 0.0111
vn 0.9166 0.3998 0.0048
vn 0.9141 0.4012 0.0591
vn 0.9128 0.4014 0.0750
vn 0.9949 0.1009 0.0012
vn 0.9946 0.1032 0.0137
vn 0.9983 0.0574 0.0119
vn 0.9987 0.0509 0.0006
vn 0.6242 -0.7809 0.0230
vn -0.8085 0.1829 0.5594
vn -0.7948 0.2903 0.5330
vn -0.8081 0.1880 0.5583
vn -0.9808 0.0664 0.1833
vn -0.9976 0.0142 0.0675
vn -0.7629 -0.4139 0.4967
vn -0.7880 -0.2651 0.5556
vn -0.7865 -0.2798 0.5506
vn -0.9899 -0.0542 0.1310
vn -0.9985 -0.0176 0.0524
vn 0.7922 0.2937 0.5349
vn 0.8077 0.1796 0.5615
vn 0.8074 0.1838 0.5607
vn 0.9813 0.0656 0.1807
vn 0.9977 0.0140 0.0669
vn 0.7895 -0.2619 0.5550
vn 0.7629 -0.4139 0.4967
vn 0.7880 -0.2762 0.5503
vn 0.9899 -0.0542 0.1310
vn 0.9985 -0.0176 0.0524
vn -0.8275 -0.0054 0.5614
vn -0.8276 -0.0054 0.5613
vn -0.9904 -0.0013 0.1382
vn -0.9976 -0.0007 0.0692
vn 0.8247 -0.0054 0.5655
vn -0.8247 -0.0054 0.5655
vn 0.9976 -0.0007 0.0692
vn 0.9904 -0.0013 0.1382
vn 0.8276 -0.0054 0.5613
vn 0.8275 -0.0054 0.5614
vn -0.0000 -1.0000 -0.0000
vn -0.8072 -0.0204 0.5899
vn -0.8067 -0.0266 0.5904
vn 0.8075 -0.0227 0.5894
vn 0.8069 -0.0287 0.5899
vn 0.9976 -0.0007 0.0693
vn -0.9976 -0.0007 0.0693
vn 0.8273 -0.0054 0.5617
vn 0.8274 -0.0054 0.5616
vn 0.9904 -0.0013 0.1383
vn -0.9904 -0.0013 0.1383
vn -0.8273 -0.0054 0.5617
vn -0.8274 -0.0054 0.5616
vt 0.929359 0.588791
vt 0.943335 0.588791
vt 0.943335 0.614656
vt 0.929359 0.614656
vt 0.943335 0.075090
vt 0.943335 0.047780
vt 0.957311 0.047780
vt 0.957311 0.075090
vt 0.243162 0.075090
vt 0.248002 0.047781
vt 0.455593 0.047781
vt 0.455593 0.075090
vt 0.136947 0.096466
vt 0.144207 0.069157
vt 0.467708 0.075090
vt 0.467708 0.047781
vt 0.675299 0.047781
vt 0.680139 0.075090
vt 0.929359 0.246323
vt 0.929359 0.075090
vt 0.943335 0.246323
vt 0.943335 0.640521
vt 0.929359 0.640521
vt 0.779094 0.069157
vt 0.786355 0.096466
vt 0.929359 0.047780
vt 0.929359 0.828061
vt 0.943335 0.828061
vt 0.676878 0.588787
vt 0.781471 0.594842
vt 0.781217 0.620715
vt 0.676714 0.614657
vt 0.780964 0.646588
vt 0.676550 0.640526
vt 0.467708 0.588792
vt 0.467708 0.614657
vt 0.467708 0.640522
vt 0.141830 0.594843
vt 0.246423 0.588787
vt 0.246587 0.614657
vt 0.142084 0.620715
vt 0.246751 0.640526
vt 0.142337 0.646588
vt 0.455593 0.588792
vt 0.455593 0.614657
vt 0.455593 0.640522
vt 0.957311 0.588791
vt 0.957311 0.614656
vt 0.957311 0.640521
vt 0.957311 0.828061
vt 0.247941 0.828062
vt 0.455593 0.828062
vt 0.957311 0.246323
vt 0.244249 0.246323
vt 0.455593 0.246324
vt 0.467708 0.246324
vt 0.679052 0.246322
vt 0.467708 0.828062
vt 0.675360 0.828062
vt 0.144116 0.828062
vt 0.138574 0.262592
vt 0.784727 0.262592
vt 0.779185 0.828062
vt 0.060899 0.103983
vt 0.053537 0.106356
vt 0.057905 0.099840
vt 0.063648 0.096738
vt 0.048037 0.094688
vt 0.057482 0.084011
vt 0.068986 0.075593
vt 0.854315 0.075593
vt 0.865820 0.084011
vt 0.865396 0.099839
vt 0.859654 0.096738
vt 0.875264 0.094688
vt 0.869764 0.106356
vt 0.862402 0.103983
vt 0.017922 0.162862
vt 0.021375 0.148000
vt 0.034923 0.146232
vt 0.035890 0.152229
vt 0.030459 0.125261
vt 0.039237 0.136157
vt 0.048137 0.139738
vt 0.892842 0.125261
vt 0.901926 0.148000
vt 0.888379 0.146232
vt 0.884065 0.136157
vt 0.905379 0.162862
vt 0.887411 0.152229
vt 0.875164 0.139738
vt 0.028961 0.637345
vt 0.024296 0.645223
vt 0.022278 0.638927
vt 0.023380 0.631557
vt 0.894340 0.637345
vt 0.900101 0.631557
vt 0.900798 0.638927
vt 0.899006 0.645223
vt 0.989794 0.125228
vt 0.981684 0.006058
vt 0.993942 0.024635
vt 0.993942 0.125789
vt 0.137519 0.876845
vt 0.036365 0.876845
vt 0.049992 0.866489
vt 0.138925 0.866489
vt 0.040352 0.106496
vt 0.045637 0.118300
vt 0.058277 0.112002
vt 0.255779 0.007671
vt 0.455533 0.006058
vt 0.455586 0.025261
vt 0.254361 0.026906
vt 0.455593 0.036824
vt 0.250819 0.038546
vt 0.680164 0.881134
vt 0.467733 0.881134
vt 0.467715 0.876845
vt 0.679760 0.876845
vt 0.467708 0.866489
vt 0.678820 0.866489
vt 0.767399 0.029854
vt 0.769745 0.049345
vt 0.775526 0.061603
vt 0.896026 0.828061
vt 0.905585 0.881134
vt 0.886936 0.876845
vt 0.878129 0.828062
vt 0.873309 0.866489
vt 0.866319 0.828062
vt 0.882949 0.106496
vt 0.877664 0.118300
vt 0.865024 0.112001
vt 0.017716 0.881134
vt 0.027275 0.828061
vt 0.045172 0.828062
vt 0.056983 0.828062
vt 0.455568 0.881135
vt 0.243137 0.881135
vt 0.243541 0.876845
vt 0.455586 0.876845
vt 0.244481 0.866489
vt 0.455593 0.866489
vt 0.155902 0.029854
vt 0.153557 0.049345
vt 0.147775 0.061603
vt 0.786380 0.881135
vt 0.785782 0.876845
vt 0.784376 0.866489
vt 0.467768 0.006058
vt 0.667522 0.007671
vt 0.668940 0.026906
vt 0.467716 0.025261
vt 0.672483 0.038546
vt 0.467708 0.036824
vt 0.136922 0.881135
vt 0.973574 0.125228
vt 0.969426 0.125789
vt 0.969426 0.024635
vt 0.008149 0.628655
vt 0.024202 0.609521
vt 0.042291 0.608809
vt 0.054565 0.607088
vt 0.024929 0.661243
vt 0.010084 0.649132
vt 0.042881 0.660549
vt 0.054823 0.658874
vt 0.899099 0.609521
vt 0.915152 0.628654
vt 0.881010 0.608809
vt 0.868736 0.607088
vt 0.913217 0.649132
vt 0.898372 0.661243
vt 0.880420 0.660549
vt 0.868478 0.658874
vt 0.020015 0.311749
vt 0.038024 0.304423
vt 0.050280 0.295521
vt 0.873021 0.295521
vt 0.885278 0.304422
vt 0.903286 0.311749
vt 0.981684 0.125228
vt 0.935225 0.881134
vt 0.931077 0.876845
vt 0.929359 0.866489
vt 0.943335 0.881134
vt 0.989794 0.443875
vt 0.981684 0.443875
vt 0.981684 0.231444
vt 0.989794 0.231444
vt 0.929359 0.036824
vt 0.931077 0.025260
vt 0.943335 0.006058
vt 0.973574 0.443875
vt 0.973574 0.231444
vt 0.957311 0.866489
vt 0.955593 0.876845
vt 0.951445 0.881134
vt 0.955593 0.025260
vt 0.957311 0.036824
vt 0.006058 0.639182
vt 0.917244 0.639182
vt 0.783099 0.428717
vt 0.870879 0.451304
vt 0.052422 0.451304
vt 0.140202 0.428717
vt 0.883144 0.456616
vt 0.901192 0.460635
vt 0.040157 0.456616
vt 0.022109 0.460635
vt 0.677965 0.417555
vt 0.245336 0.417555
vt 0.467708 0.417558
vt 0.455593 0.417558
vt 0.943335 0.417557
vt 0.957311 0.417557
vt 0.929359 0.417557
s 1
usemtl Stoneslab
f 25/1/1 49/2/1 50/3/1 27/4/1
f 21/5/1 44/6/1 6/7/1 2/8/1
f 8/9/2 12/10/2 5/11/2 1/12/2
f 16/13/2 18/14/2 12/10/2 8/9/2
f 2/15/3 6/16/3 11/17/3 7/18/3
f 142/19/1 1/20/1 21/5/1 137/21/1
f 27/4/1 50/3/1 51/22/1 26/23/1
f 7/18/3 11/17/3 15/24/3 13/25/3
f 1/20/1 5/26/1 44/6/1 21/5/1
f 3/27/1 26/23/1 51/22/1 20/28/1
f 35/29/3 40/30/3 42/31/3 36/32/3
f 36/32/3 42/31/3 41/33/3 34/34/3
f 29/35/3 35/29/3 36/32/3 30/36/3
f 30/36/3 36/32/3 34/34/3 28/37/3
f 37/38/2 31/39/2 33/40/2 39/41/2
f 39/41/2 33/40/2 32/42/2 38/43/2
f 31/39/2 25/44/2 27/45/2 33/40/2
f 33/40/2 27/45/2 26/46/2 32/42/2
f 49/2/1 29/47/1 30/48/1 50/3/1
f 50/3/1 30/48/1 28/49/1 51/22/1
f 20/28/1 51/22/1 28/49/1 4/50/1
f 9/51/2 32/42/2 26/46/2 3/52/2
f 137/21/1 21/5/1 2/8/1 143/53/1
f 146/54/2 8/9/2 1/12/2 142/55/2
f 143/56/3 2/15/3 7/18/3 147/57/3
f 4/58/3 28/37/3 34/34/3 10/59/3
f 17/60/2 38/43/2 32/42/2 9/51/2
f 139/61/2 16/13/2 8/9/2 146/54/2
f 147/57/3 7/18/3 13/25/3 150/62/3
f 10/59/3 34/34/3 41/33/3 14/63/3
f 56/64/4 59/65/5 60/66/6 62/67/7
f 57/68/8 61/69/9 60/66/10 59/65/11
f 58/70/12 62/67/13 60/66/10 61/69/9
f 58/71/14 61/72/15 71/73/16 73/74/17
f 57/75/18 72/76/19 71/73/16 61/72/15
f 70/77/20 73/74/21 71/73/22 72/76/23
f 79/78/24 82/79/25 83/80/26 85/81/27
f 80/82/28 84/83/29 83/80/26 82/79/25
f 81/84/30 85/81/31 83/80/32 84/83/33
f 80/85/34 82/86/35 87/87/36 89/88/37
f 79/89/38 88/90/39 87/87/36 82/86/35
f 86/91/40 89/88/41 87/87/42 88/90/43
f 124/92/44 127/93/45 125/94/46 126/95/47
f 132/96/48 135/97/49 133/98/50 134/99/51
f 109/100/52 22/101/53 55/102/53 110/103/54
f 110/104/55 55/105/56 54/106/57 108/107/58
f 43/108/59 57/68/8 59/65/11 95/109/60
f 95/109/61 59/65/5 56/64/4 94/110/62
f 45/111/63 23/112/64 67/113/64 102/114/65
f 102/114/66 67/113/67 66/115/68 101/116/69
f 104/117/70 75/118/70 76/119/70 105/120/70
f 105/120/71 76/119/71 74/121/72 103/122/72
f 47/123/73 58/71/14 73/74/17 112/124/74
f 112/124/75 73/74/21 70/77/20 111/125/76
f 19/126/77 22/127/78 69/128/78 91/129/79
f 91/129/80 69/128/81 68/130/82 90/131/83
f 43/132/84 80/85/34 89/88/37 97/133/85
f 97/133/86 89/88/41 86/91/40 96/134/87
f 22/135/88 19/136/89 93/137/90 55/105/88
f 55/105/56 93/137/91 92/138/92 54/106/57
f 80/82/28 43/108/59 95/109/60 84/83/29
f 84/83/33 95/109/61 94/110/62 81/84/30
f 57/75/18 43/132/84 97/133/85 72/76/19
f 72/76/23 97/133/86 96/134/87 70/77/20
f 63/139/93 98/140/93 100/141/93 65/142/93
f 65/142/55 100/141/55 99/143/58 64/144/58
f 47/145/94 45/111/63 102/114/65 114/146/95
f 114/146/96 102/114/66 101/116/69 113/147/97
f 116/148/98 104/117/70 105/120/70 117/149/99
f 117/149/71 105/120/71 103/122/72 115/150/72
f 23/151/100 45/152/101 107/153/102 78/154/100
f 78/154/103 107/153/104 106/155/105 77/156/106
f 98/140/93 109/157/52 110/104/54 100/141/93
f 100/141/55 110/104/55 108/107/58 99/143/58
f 45/152/101 47/123/73 112/124/74 107/153/102
f 107/153/104 112/124/75 111/125/76 106/155/105
f 58/70/12 47/145/94 114/146/95 62/67/13
f 62/67/7 114/146/96 113/147/97 56/64/4
f 22/101/107 116/158/98 117/159/99 69/160/107
f 69/128/81 117/149/71 115/150/72 68/130/82
f 123/161/108 52/162/109 121/163/109 126/95/110
f 126/95/47 121/163/111 120/164/112 124/92/44
f 53/165/113 122/166/114 127/93/115 119/167/113
f 119/167/116 127/93/45 124/92/44 118/168/117
f 52/169/118 123/170/119 135/97/120 129/171/118
f 129/171/121 135/97/49 132/96/48 128/172/122
f 122/173/123 53/174/124 131/175/124 134/99/125
f 134/99/51 131/175/126 130/176/127 132/96/48
f 152/177/128 79/78/24 85/81/27 153/178/129
f 153/178/130 85/81/31 81/84/30 155/179/131
f 90/131/83 130/176/127 131/175/126 91/129/80
f 91/129/79 131/175/132 53/174/132 19/126/77
f 118/168/117 92/138/92 93/137/91 119/167/116
f 119/167/133 93/137/90 19/136/89 53/165/133
f 158/180/134 86/91/40 88/90/43 159/181/135
f 159/181/136 88/90/39 79/89/38 152/182/137
f 109/100/138 48/183/138 22/101/138
f 54/106/57 92/138/92 17/60/2 108/107/58
f 94/110/62 56/64/4 113/147/97 18/14/2
f 63/184/1 65/185/1 64/186/1 3/27/1 20/28/1 24/187/1
f 63/188/138 24/189/138 46/190/138 98/191/138
f 99/143/58 9/51/2 3/52/2 64/144/58
f 12/10/2 101/116/69 66/115/68 5/11/2
f 5/26/1 66/192/1 67/193/1 23/194/1 44/6/1
f 115/150/72 14/63/3 90/131/83 68/130/82
f 48/183/138 116/158/138 22/101/138
f 15/24/3 111/125/76 70/77/20 96/134/87
f 74/121/72 4/58/3 10/59/3 103/122/72
f 24/189/138 75/195/138 104/196/138 46/190/138
f 24/187/1 20/28/1 4/50/1 74/197/1 76/198/1 75/199/1
f 44/6/1 23/194/1 78/200/1 77/201/1 6/7/1
f 6/16/3 77/156/106 106/155/105 11/17/3
f 81/84/30 94/110/62 18/14/2 16/13/2
f 155/179/131 81/84/30 16/13/2 139/61/2
f 13/25/3 15/24/3 96/134/87 86/91/40
f 150/62/3 13/25/3 86/91/40 158/180/134
f 14/63/3 41/33/3 130/176/127 90/131/83
f 92/138/92 118/168/117 38/43/2 17/60/2
f 98/191/138 46/190/138 48/183/138 109/100/138
f 108/107/58 17/60/2 9/51/2 99/143/58
f 18/14/2 113/147/97 101/116/69 12/10/2
f 46/190/138 104/196/138 116/158/138 48/183/138
f 103/122/72 10/59/3 14/63/3 115/150/72
f 11/17/3 106/155/105 111/125/76 15/24/3
f 124/92/44 39/41/2 38/43/2 118/168/117
f 120/164/112 37/38/2 39/41/2 124/92/44
f 40/30/3 128/172/122 132/96/48 42/31/3
f 42/31/3 132/96/48 130/176/127 41/33/3
f 122/166/114 136/202/139 125/94/140 127/93/115
f 123/161/108 126/95/110 125/94/140 136/202/139
f 123/170/119 136/203/141 133/98/142 135/97/120
f 122/173/123 134/99/125 133/98/142 136/203/141
f 40/30/3 149/204/3 157/205/143 128/172/122
f 149/204/3 150/62/3 158/180/134 157/205/143
f 120/164/112 156/206/144 140/207/2 37/38/2
f 156/206/144 155/179/131 139/61/2 140/207/2
f 129/171/145 160/208/146 151/209/146 52/169/145
f 160/208/146 159/181/136 152/182/137 151/209/146
f 128/172/122 157/205/143 160/208/147 129/171/121
f 157/205/143 158/180/134 159/181/135 160/208/147
f 121/163/111 154/210/148 156/206/144 120/164/112
f 154/210/148 153/178/130 155/179/131 156/206/144
f 52/162/149 151/211/150 154/210/150 121/163/149
f 151/211/150 152/177/128 153/178/129 154/210/150
f 35/29/3 148/212/3 149/204/3 40/30/3
f 148/212/3 147/57/3 150/62/3 149/204/3
f 37/38/2 140/207/2 145/213/2 31/39/2
f 140/207/2 139/61/2 146/54/2 145/213/2
f 29/35/3 144/214/3 148/212/3 35/29/3
f 144/214/3 143/56/3 147/57/3 148/212/3
f 31/39/2 145/213/2 141/215/2 25/44/2
f 145/213/2 146/54/2 142/55/2 141/215/2
f 49/2/1 138/216/1 144/217/1 29/47/1
f 138/216/1 137/21/1 143/53/1 144/217/1
f 25/1/1 141/218/1 138/216/1 49/2/1
f 141/218/1 142/19/1 137/21/1 138/216/1
