# Blender 5.0.0
# www.blender.org
mtllib PressurePlate.mtl
o PressurePlate
v -3.000000 0.000052 3.000000
v -3.000000 0.000052 -3.000000
v 3.000000 0.000052 3.000000
v 3.000000 0.000052 -3.000000
v -2.796905 0.203147 2.796905
v -2.796905 0.203147 -2.796905
v 2.796905 0.203147 2.796905
v 2.796905 0.203147 -2.796905
vn -0.0000 -1.0000 -0.0000
vn -0.7071 0.7071 -0.0000
vn -0.0000 0.7071 -0.7071
vn 0.7071 0.7071 -0.0000
vn -0.0000 0.7071 0.7071
vn -0.0000 1.0000 -0.0000
vt 0.519009 0.480991
vt 0.519009 0.012756
vt 0.987244 0.012756
vt 0.987244 0.480991
vt 0.036667 0.036905
vt 0.035269 0.471231
vt 0.012756 0.493521
vt 0.012756 0.012756
vt 0.469587 0.474146
vt 0.493497 0.498295
vt 0.470985 0.039820
vt 0.493497 0.017530
vt 0.955545 0.943039
vt 0.519009 0.943039
vt 0.519009 0.506503
vt 0.955545 0.506503
s 0
usemtl PressurePlate
f 2/1/1 4/2/1 3/3/1 1/4/1
f 5/5/2 6/6/2 2/7/2 1/8/2
f 6/6/3 8/9/3 4/10/3 2/7/3
f 8/9/4 7/11/4 3/12/4 4/10/4
f 7/11/5 5/5/5 1/8/5 3/12/5
f 8/13/6 6/14/6 5/15/6 7/16/6
