<?xml version="1.0" encoding="UTF-8" standalone="no"?>
<!-- Created with Inkscape (http://www.inkscape.org/) -->

<svg
   version="1.1"
   id="svg1"
   width="435.36786"
   height="443.77075"
   viewBox="0 0 435.36786 443.77075"
   sodipodi:docname="ballyhead.png"
   inkscape:export-filename="ballyhead.svg"
   inkscape:export-xdpi="2.25"
   inkscape:export-ydpi="2.25"
   xmlns:inkscape="http://www.inkscape.org/namespaces/inkscape"
   xmlns:sodipodi="http://sodipodi.sourceforge.net/DTD/sodipodi-0.dtd"
   xmlns="http://www.w3.org/2000/svg"
   xmlns:svg="http://www.w3.org/2000/svg">
  <defs
     id="defs1" />
  <sodipodi:namedview
     id="namedview1"
     pagecolor="#ffffff"
     bordercolor="#000000"
     borderopacity="0.25"
     inkscape:showpageshadow="2"
     inkscape:pageopacity="0.0"
     inkscape:pagecheckerboard="0"
     inkscape:deskcolor="#d1d1d1">
    <inkscape:page
       x="0"
       y="0"
       width="435.36786"
       height="443.77075"
       id="page2"
       margin="0"
       bleed="0" />
  </sodipodi:namedview>
  <path
     style="fill:#ff5555;fill-opacity:1;stroke:#ffffff;stroke-width:24;stroke-dasharray:none;stroke-opacity:1"
     d="M 186.96582,429.87668 C 115.75806,424.3695 65.710488,413.48604 37.534008,397.38086 c -9.51473,-5.43844 -11.31594,-7.89097 -16.23819,-22.10992 -2.25153,-6.50405 -5.01035,-13.02129 -6.13069,-14.48276 -2.7966,-3.64811 -4.05567,-19.03068 -2.43099,-29.70036 2.17085,-14.25649 8.55888,-28.18398 27.81546,-60.64468 11.25254,-18.96834 19.49742,-34.73316 21.73911,-41.56675 2.00084,-6.09943 6.7824,-15.57937 10.72209,-21.25766 3.91094,-5.63683 8.76329,-13.83601 10.78302,-18.2204 5.76638,-12.51761 13.81752,-48.85599 19.280962,-87.02353 5.58706,-39.031233 12.05019,-71.087903 15.98377,-79.278503 2.16549,-4.50902 3.93724,-8.878882 3.93724,-9.710792 0,-6.4518438 13.93901,12.887052 20.09058,27.873542 7.06229,17.20525 23.45236,72.369203 29.21138,98.316653 l 4.2758,19.26475 27.98546,-0.41997 c 15.392,-0.23099 33.38292,0.18267 39.97984,0.91924 6.5969,0.73656 12.48091,0.92555 13.07556,0.41997 0.59465,-0.50558 1.90541,-7.19689 2.91277,-14.86957 2.03665,-15.51197 19.772,-73.239093 31.11845,-101.287953 5.14983,-12.73057 8.5436,-18.7505 13.70256,-24.30581 3.77154,-4.061297 7.34848,-6.909319 7.94875,-6.328935 2.50341,2.420485 8.31249,18.375835 10.4123,28.598635 1.24113,6.04236 3.40349,21.69352 4.80525,34.78036 2.46004,22.96715 11.02636,74.585673 15.78486,95.115773 3.01304,12.99945 7.45909,22.58216 15.41071,33.21508 3.69961,4.94713 8.8872,15.00238 12.14477,23.54057 3.12764,8.19756 11.8105,25.2369 19.29526,37.8652 24.95906,42.11089 30.14515,54.3191 31.83279,74.93539 0.85793,10.48046 0.5419,15.02157 -1.43314,20.59336 -1.39357,3.93141 -3.26708,10.95022 -4.16338,15.59738 -1.83792,9.5295 -6.84052,15.59352 -21.37312,25.90798 -14.56643,10.33845 -30.70429,15.91559 -61.87244,21.38267 -40.37168,7.08142 -97.94047,9.18463 -147.17498,5.37686 z"
     id="path1"
     inkscape:export-filename="icon_ballyhead.svg"
     inkscape:export-xdpi="3.5814862"
     inkscape:export-ydpi="3.5814862" />
</svg>
